<svg width="36" height="37" viewBox="0 0 36 37" fill="none" xmlns="http://www.w3.org/2000/svg">
<g filter="url(#filter0_d_1727_363681)">
<path d="M8.10714 31.0658C7.32143 31.0658 6.64905 30.7863 6.09 30.2273C5.53095 29.6682 5.25095 28.9954 5.25 28.2087V22.4944H8.10714V28.2087H13.8214V31.0658H8.10714ZM22.3929 31.0658V28.2087H28.1071V22.4944H30.9643V28.2087C30.9643 28.9944 30.6848 29.6673 30.1257 30.2273C29.5667 30.7873 28.8938 31.0668 28.1071 31.0658H22.3929ZM5.25 13.923V8.2087C5.25 7.42299 5.53 6.75061 6.09 6.19156C6.65 5.63251 7.32238 5.35251 8.10714 5.35156H13.8214V8.2087H8.10714V13.923H5.25ZM28.1071 13.923V8.2087H22.3929V5.35156H28.1071C28.8929 5.35156 29.5657 5.63156 30.1257 6.19156C30.6857 6.75156 30.9652 7.42394 30.9643 8.2087V13.923H28.1071ZM18.1071 25.3516C16.131 25.3516 14.4467 24.6549 13.0543 23.2616C11.6619 21.8682 10.9652 20.1839 10.9643 18.2087C10.9633 16.2335 11.66 14.5492 13.0543 13.1558C14.4486 11.7625 16.1329 11.0658 18.1071 11.0658C20.0814 11.0658 21.7662 11.7625 23.1614 13.1558C24.5567 14.5492 25.2529 16.2335 25.25 18.2087C25.2471 20.1839 24.5505 21.8687 23.16 23.263C21.7695 24.6573 20.0852 25.3535 18.1071 25.3516Z" fill="white"/>
</g>
<defs>
<filter id="filter0_d_1727_363681" x="0.25" y="0.351562" width="35.7144" height="35.7148" filterUnits="userSpaceOnUse" color-interpolation-filters="sRGB">
<feFlood flood-opacity="0" result="BackgroundImageFix"/>
<feColorMatrix in="SourceAlpha" type="matrix" values="0 0 0 0 0 0 0 0 0 0 0 0 0 0 0 0 0 0 127 0" result="hardAlpha"/>
<feOffset/>
<feGaussianBlur stdDeviation="2.5"/>
<feComposite in2="hardAlpha" operator="out"/>
<feColorMatrix type="matrix" values="0 0 0 0 0 0 0 0 0 0 0 0 0 0 0 0 0 0 0.65 0"/>
<feBlend mode="normal" in2="BackgroundImageFix" result="effect1_dropShadow_1727_363681"/>
<feBlend mode="normal" in="SourceGraphic" in2="effect1_dropShadow_1727_363681" result="shape"/>
</filter>
</defs>
</svg>
