<svg width="65" height="64" viewBox="0 0 65 64" fill="none" xmlns="http://www.w3.org/2000/svg">
<path d="M23.172 30.6653C23.8807 30.6653 24.5603 30.9469 25.0614 31.448C25.5625 31.9491 25.844 32.6287 25.844 33.3373C25.844 34.046 25.5625 34.7256 25.0614 35.2267C24.5603 35.7278 23.8807 36.0093 23.172 36.0093C22.463 36.0093 21.783 35.7277 21.2817 35.2263C20.7803 34.725 20.4987 34.045 20.4987 33.336C20.4987 32.627 20.7803 31.947 21.2817 31.4457C21.783 30.9443 22.463 30.6627 23.172 30.6627M32.5 11.6067V29.34H52.3453L47.7533 24.7453C47.4139 24.4066 47.2075 23.9571 47.1718 23.4789C47.1361 23.0006 47.2734 22.5255 47.5587 22.14L47.7533 21.916C48.0923 21.5777 48.5414 21.3722 49.019 21.337C49.4966 21.3018 49.971 21.4391 50.356 21.724L50.58 21.916L58.572 29.9107C58.9107 30.2493 59.1166 30.6983 59.1524 31.1759C59.1881 31.6535 59.0512 32.1281 58.7667 32.5133L58.572 32.7373L50.5827 40.7453C50.2258 41.1008 49.7479 41.3085 49.2445 41.3269C48.7412 41.3453 48.2494 41.1731 47.8675 40.8448C47.4855 40.5164 47.2416 40.056 47.1843 39.5555C47.1271 39.0551 47.2607 38.5515 47.5587 38.1453L47.7507 37.9213L52.3187 33.3427H32.5027L32.5 51.332C32.4997 51.6239 32.4356 51.9121 32.3121 52.1766C32.1886 52.441 32.0088 52.6752 31.7852 52.8627C31.5615 53.0503 31.2996 53.1866 31.0177 53.2621C30.7358 53.3377 30.4408 53.3506 30.1533 53.3L7.48666 49.2973C7.02331 49.2158 6.60353 48.9735 6.30114 48.6131C5.99875 48.2527 5.83311 47.7972 5.83333 47.3267V15.332C5.83334 14.858 6.00171 14.3994 6.30843 14.0379C6.61515 13.6765 7.04028 13.4358 7.508 13.3587L30.1747 9.63601C30.461 9.58881 30.7541 9.60448 31.0337 9.68191C31.3134 9.75935 31.5728 9.89671 31.7941 10.0845C32.0153 10.2722 32.193 10.5059 32.3149 10.7692C32.4368 11.0325 32.5 11.3165 32.5 11.6067ZM28.5 13.964L9.83333 17.0307V45.6493L28.5 48.9453V13.964ZM35.1667 49.332H37.2067L37.4787 49.3133C37.9579 49.2476 38.3971 49.0103 38.7148 48.6455C39.0325 48.2807 39.2073 47.8131 39.2067 47.3293L39.188 35.996H35.1667V49.332ZM35.172 26.6653L35.1667 23.2653V13.332H37.1533C37.6362 13.3319 38.1028 13.5066 38.467 13.8237C38.8312 14.1408 39.0683 14.579 39.1347 15.0573L39.1533 15.3267L39.172 26.6653H35.172Z" fill="white"/>
</svg>
