<svg width="41" height="41" viewBox="0 0 41 41" fill="none" xmlns="http://www.w3.org/2000/svg">
<g filter="url(#filter0_d_1916_316987)">
<path d="M19.9506 15.5259C19.597 15.1844 19.1234 14.9954 18.6317 14.9997C18.1401 15.0039 17.6699 15.2011 17.3222 15.5488C16.9746 15.8964 16.7774 16.3667 16.7731 16.8583C16.7688 17.3499 16.9578 17.8236 17.2994 18.1772L22.9244 23.8022C23.276 24.1537 23.7528 24.3512 24.25 24.3512C24.7472 24.3512 25.224 24.1537 25.5756 23.8022L31.2006 18.1772C31.5422 17.8236 31.7312 17.3499 31.7269 16.8583C31.7226 16.3667 31.5254 15.8964 31.1778 15.5488C30.8301 15.2011 30.3599 15.0039 29.8683 14.9997C29.3766 14.9954 28.903 15.1844 28.5494 15.5259L26.125 17.9503V11.2266H31.75C32.7446 11.2266 33.6984 11.6217 34.4016 12.3249C35.1049 13.0282 35.5 13.982 35.5 14.9766V24.3516C35.5 25.3461 35.1049 26.3 34.4016 27.0032C33.6984 27.7065 32.7446 28.1016 31.75 28.1016H16.75C15.7554 28.1016 14.8016 27.7065 14.0983 27.0032C13.3951 26.3 13 25.3461 13 24.3516V14.9766C13 13.982 13.3951 13.0282 14.0983 12.3249C14.8016 11.6217 15.7554 11.2266 16.75 11.2266H22.375V17.9503L19.9506 15.5259ZM22.375 7.47656C22.375 6.97928 22.5725 6.50237 22.9242 6.15074C23.2758 5.79911 23.7527 5.60156 24.25 5.60156C24.7473 5.60156 25.2242 5.79911 25.5758 6.15074C25.9275 6.50237 26.125 6.97928 26.125 7.47656V11.2266H22.375V7.47656Z" fill="white"/>
<path d="M9.25 18.7266C8.25544 18.7266 7.30161 19.1217 6.59835 19.8249C5.89509 20.5282 5.5 21.482 5.5 22.4766V31.8516C5.5 32.8461 5.89509 33.8 6.59835 34.5032C7.30161 35.2065 8.25544 35.6016 9.25 35.6016H24.25C25.2446 35.6016 26.1984 35.2065 26.9016 34.5032C27.6049 33.8 28 32.8461 28 31.8516H9.25V18.7266Z" fill="white"/>
</g>
<defs>
<filter id="filter0_d_1916_316987" x="0.5" y="0.601562" width="40" height="40" filterUnits="userSpaceOnUse" color-interpolation-filters="sRGB">
<feFlood flood-opacity="0" result="BackgroundImageFix"/>
<feColorMatrix in="SourceAlpha" type="matrix" values="0 0 0 0 0 0 0 0 0 0 0 0 0 0 0 0 0 0 127 0" result="hardAlpha"/>
<feOffset/>
<feGaussianBlur stdDeviation="2.5"/>
<feComposite in2="hardAlpha" operator="out"/>
<feColorMatrix type="matrix" values="0 0 0 0 0 0 0 0 0 0 0 0 0 0 0 0 0 0 0.65 0"/>
<feBlend mode="normal" in2="BackgroundImageFix" result="effect1_dropShadow_1916_316987"/>
<feBlend mode="normal" in="SourceGraphic" in2="effect1_dropShadow_1916_316987" result="shape"/>
</filter>
</defs>
</svg>
