<svg width="71" height="71" viewBox="0 0 71 71" fill="none" xmlns="http://www.w3.org/2000/svg">
<path d="M21.688 50.6114C19.5962 49.9116 18.8989 50.3782 18.8989 52.0112C18.8989 55.2773 18.8989 58.3101 18.8989 61.5761C18.8989 62.9759 18.4341 63.6758 16.5747 63.6758C14.2505 63.6758 12.1587 63.6758 10.0669 63.6758C10.7642 60.643 11.4614 57.8435 11.6938 55.044C11.9263 52.2445 11.6938 49.445 11.6938 46.4122C7.04541 45.7123 7.04541 45.7123 7.04541 41.7464C7.04541 38.7136 7.04541 35.9141 7.04541 32.8813C7.04541 27.7489 9.13721 25.6493 15.4126 24.9494C15.8774 24.9494 16.1099 24.7161 16.8071 24.7161C15.1802 22.6165 13.3208 20.7501 11.9263 18.8838C11.229 17.9507 11.229 16.5509 11.229 15.6177C11.229 14.6846 11.9263 13.7514 11.6938 12.8182C11.4614 10.0187 13.0884 8.619 15.8774 8.15241C18.2017 7.68583 20.7583 7.45254 23.3149 7.91912C27.731 8.3857 28.6607 9.78545 28.8931 13.2848C28.8931 13.5181 28.8931 13.5181 28.8931 13.7514C31.2173 18.4172 27.4985 20.9834 24.0122 23.7829C23.7798 23.7829 23.7798 24.2495 23.3149 24.9494C24.4771 25.1827 25.4067 25.1827 26.3364 25.1827C30.2876 25.6493 33.0767 27.9822 33.0767 31.2483C33.3091 35.6808 33.0767 39.88 33.0767 44.3126C33.0767 45.7123 32.3794 46.1789 30.7525 46.1789C28.8931 45.9456 28.4282 46.8788 28.4282 48.2785C28.4282 51.5446 28.1958 54.5774 28.4282 57.8435C28.6607 59.7098 29.8228 61.3429 30.7525 63.6758C27.9634 63.6758 25.1743 63.6758 22.6177 63.6758C22.1528 63.6758 21.4556 62.276 21.4556 61.5761C21.688 57.8435 21.688 54.1108 21.688 50.6114ZM27.0337 46.4122C22.6177 46.4122 18.2017 46.4122 13.7856 46.4122C13.7856 50.6115 13.7856 54.8107 13.7856 58.7766C14.9478 58.7766 15.8774 58.7766 17.272 58.5434C17.272 55.2773 17.272 52.0112 17.272 48.9784C19.3638 48.9784 20.9907 48.9784 23.3149 48.9784C23.3149 52.2445 23.3149 55.5106 23.3149 58.5434C24.7095 58.5434 25.8716 58.5434 27.0337 58.5434C27.0337 54.5774 27.0337 50.6115 27.0337 46.4122ZM15.1802 15.1512C14.2505 19.3504 15.4126 21.45 18.4341 22.3832C20.9907 23.0831 23.7798 22.1499 24.9419 20.2836C26.3364 17.9507 25.8716 13.9847 24.0122 12.8182C22.6177 13.5181 21.4556 14.218 19.8286 14.4513C18.4341 14.9179 16.5747 14.9179 15.1802 15.1512Z" fill="white"/>
<path d="M39.813 34.5147C39.813 30.3154 39.813 26.3495 39.813 22.6168C39.813 17.7177 40.7427 16.7845 46.0884 15.6181C47.0181 11.1855 47.0181 11.1855 52.3638 11.1855C54.688 11.1855 57.0122 11.1855 59.5689 11.1855C61.8931 11.1855 63.0552 12.1187 63.0552 13.985C63.0552 15.8514 63.0552 17.4844 63.0552 19.3507C63.0552 21.6837 61.6607 22.3835 59.104 22.3835C56.3149 22.3835 53.7583 22.3835 50.9692 22.3835C47.4829 22.3835 46.7856 21.6837 46.3208 18.8842C46.3208 18.4176 46.0884 18.1843 46.0884 17.7177C43.5317 17.7177 42.1372 18.6509 42.1372 20.5172C42.1372 25.183 42.1372 29.8489 42.1372 34.748C43.5317 34.748 44.6939 34.748 46.0884 34.748C47.2505 30.0822 47.2505 30.0822 53.2935 30.0822C55.3853 30.0822 57.7095 30.0822 59.8013 30.0822C61.8931 30.0822 63.0552 31.0153 63.0552 32.8816C63.0552 34.748 63.0552 36.6143 63.0552 38.4806C63.0552 40.347 61.8931 41.2801 59.8013 41.2801C57.4771 41.2801 55.1528 41.2801 52.5962 41.2801C47.0181 41.2801 47.0181 41.2801 46.0884 36.8476C44.9263 36.8476 43.5317 36.8476 42.1372 36.8476C42.1372 41.98 41.9048 47.1124 42.1372 52.0115C42.1372 53.6446 43.7642 54.5778 45.856 54.3445C46.0884 54.1112 46.0884 54.1112 46.0884 53.8779C46.5532 48.9788 46.5532 48.9788 52.3638 48.9788C54.688 48.9788 57.0122 48.9788 59.104 48.9788C61.4282 48.9788 62.5903 49.9119 62.5903 51.7783C62.5903 53.6446 62.5903 55.5109 62.5903 57.3772C62.5903 59.2436 61.4282 60.1767 59.3364 60.1767C56.0825 60.1767 52.8286 60.1767 49.5747 60.1767C46.5532 60.1767 46.3208 58.3104 45.856 56.4441C40.2778 55.0443 39.3481 54.1112 39.3481 49.212C39.3481 45.0128 39.3481 40.8136 39.3481 36.381C38.4185 36.381 37.7212 36.381 37.0239 36.1477C36.0942 35.9144 35.397 35.6811 34.4673 35.2146C35.1646 34.9813 35.8618 34.5147 36.7915 34.2814C37.9536 34.5147 38.6509 34.5147 39.813 34.5147ZM58.6392 36.381C58.6392 35.9144 58.6392 35.4479 58.6392 34.9813C56.315 34.9813 53.7583 34.9813 51.4341 34.9813C51.2017 34.9813 50.9692 35.4479 50.9692 35.6811C50.9692 35.9144 51.4341 36.381 51.6665 36.381C54.2232 36.381 56.315 36.381 58.6392 36.381ZM50.9692 54.1112C52.5962 55.7442 56.7798 55.7442 59.5689 54.1112C56.315 54.1112 53.7583 54.1112 50.9692 54.1112ZM51.2017 16.0847C53.2935 17.951 57.4771 17.7177 58.8716 16.0847C56.0825 16.0847 53.7583 16.0847 51.2017 16.0847Z" fill="white"/>
</svg>
