<svg width="71" height="71" viewBox="0 0 71 71" fill="none" xmlns="http://www.w3.org/2000/svg">
<path d="M35.8379 56.0949C24.6493 56.0949 15.5311 46.9525 15.5709 35.7432C15.6107 24.5338 24.6891 15.4709 35.8379 15.4709C47.1858 15.4709 56.304 24.5736 56.2642 35.8624C56.2244 47.1115 47.146 56.0949 35.8379 56.0949ZM28.5115 32.7619C27.7948 32.7619 27.2772 32.7619 26.7596 32.7619C25.7243 32.7619 25.4854 33.0004 25.4854 34.0339C25.4854 37.2934 25.4854 40.5528 25.4854 43.8123C25.4854 46.8333 27.6356 49.099 30.6617 49.1387C34.1656 49.1785 37.7093 49.1785 41.2132 49.1387C44.0403 49.099 46.2302 46.873 46.27 44.0508C46.3099 40.6323 46.27 37.2536 46.27 33.8352C46.27 33.1197 45.9515 32.8414 45.2348 32.8017C44.6375 32.8017 44.0403 32.8017 43.3634 32.8017C43.3634 31.9272 43.4032 31.0925 43.3634 30.2975C43.3236 29.6217 43.2837 28.9063 43.1245 28.2703C42.3281 24.8518 39.0233 22.3873 35.599 22.5861C31.8562 22.7848 28.9097 25.4878 28.4717 29.1448C28.3921 30.218 28.5115 31.4502 28.5115 32.7619Z" fill="white"/>
<path d="M65.3826 50.3313C64.7854 50.3313 64.2677 50.3313 63.6705 50.3313C63.6705 48.463 63.6705 46.6346 63.6705 44.7266C61.1222 44.7266 58.6933 44.7266 56.145 44.7266C56.3441 44.2099 56.5034 43.7726 56.7025 43.3354C56.7821 43.1764 57.021 43.0571 57.1803 43.0571C59.6091 43.0571 61.9982 43.0571 64.427 43.0571C64.9845 43.0571 65.303 43.3354 65.303 43.8521C65.3826 45.9986 65.3826 48.1451 65.3826 50.3313Z" fill="white"/>
<path d="M44.8366 56.0154C44.8366 58.5991 44.8366 61.0238 44.8366 63.528C46.7479 63.528 48.5396 63.528 50.411 63.528C50.411 64.1243 50.411 64.641 50.411 65.2373C49.8536 65.2373 49.2563 65.2373 48.6989 65.2373C47.2257 65.2373 45.7126 65.2373 44.2394 65.2373C43.4032 65.2373 43.1643 64.959 43.1643 64.164C43.1643 61.8983 43.1643 59.6326 43.1643 57.3669C43.1643 56.8104 43.2838 56.5321 43.8412 56.4129C44.1199 56.3334 44.3986 56.1744 44.8366 56.0154Z" fill="white"/>
<path d="M15.6507 44.7267C13.1024 44.7267 10.6735 44.7267 8.16502 44.7267C8.16502 46.6346 8.16502 48.4631 8.16502 50.3313C7.56776 50.3313 7.05014 50.3313 6.45288 50.3313C6.45288 49.4568 6.45288 48.6221 6.45288 47.7476C6.45288 46.5551 6.45288 45.3626 6.45288 44.2099C6.45288 43.3354 6.69178 43.0969 7.56776 43.0969C9.79753 43.0969 12.0273 43.0969 14.2571 43.0969C14.8145 43.0969 15.1729 43.2162 15.2923 43.7727C15.3719 44.0509 15.4914 44.3292 15.6507 44.7267Z" fill="white"/>
<path d="M56.2246 26.9985C58.7331 26.9985 61.162 26.9985 63.6306 26.9985C63.6306 25.0905 63.6306 23.262 63.6306 21.3938C64.2279 21.3938 64.7455 21.3938 65.3826 21.3938C65.3826 22.0695 65.3826 22.7453 65.3826 23.3813C65.3826 24.7725 65.3826 26.124 65.3826 27.5152C65.3826 28.3897 65.1437 28.6282 64.2677 28.6282C62.0379 28.6282 59.7683 28.6282 57.5386 28.6282C57.021 28.6282 56.7422 28.5089 56.6228 27.9922C56.5431 27.714 56.3839 27.4357 56.2246 26.9985Z" fill="white"/>
<path d="M21.4241 6.448C22.9769 6.448 24.5298 6.448 26.0429 6.448C26.6401 6.448 27.1976 6.448 27.7948 6.448C28.3125 6.448 28.6708 6.68649 28.7106 7.24299C28.7106 9.6677 28.7106 12.1322 28.7106 14.5569C28.7106 14.7159 28.5514 14.9146 28.3921 14.9941C27.9939 15.1929 27.5958 15.3121 27.1179 15.5109C27.1179 13.0464 27.1179 10.6217 27.1179 8.11747C25.1669 8.11747 23.3353 8.11747 21.4639 8.11747C21.4241 7.56098 21.4241 7.08399 21.4241 6.448Z" fill="white"/>
<path d="M21.4241 65.277C21.4241 64.6808 21.4241 64.1641 21.4241 63.6076C23.2955 63.6076 25.1271 63.6076 27.0383 63.6076C27.0383 61.1034 27.0383 58.6389 27.0383 56.0552C27.5957 56.2937 28.0736 56.4527 28.5514 56.6514C28.6708 56.6912 28.7106 56.9297 28.7106 57.0887C28.7106 59.5134 28.7106 61.8983 28.7106 64.3231C28.7106 64.8796 28.4717 65.277 27.8745 65.277C25.7642 65.277 23.614 65.277 21.4241 65.277Z" fill="white"/>
<path d="M6.49262 21.3938C7.05006 21.3938 7.56769 21.3938 8.16495 21.3938C8.16495 23.2223 8.16495 25.0905 8.16495 26.9985C10.6734 26.9985 13.1023 26.9985 15.6506 26.9985C15.4515 27.555 15.2922 28.032 15.0931 28.4692C15.0533 28.5884 14.7746 28.6679 14.6153 28.6679C12.2263 28.6679 9.87709 28.6679 7.48805 28.6679C6.97043 28.6679 6.53244 28.4692 6.53244 27.9127C6.4528 25.7265 6.49262 23.58 6.49262 21.3938Z" fill="white"/>
<path d="M44.7968 8.15722C44.7968 10.6217 44.7968 13.0464 44.7968 15.5506C44.2394 15.3519 43.8014 15.1929 43.3634 14.9941C43.244 14.9146 43.1245 14.6761 43.1245 14.5171C43.1245 12.1322 43.1245 9.78695 43.1245 7.40198C43.1245 6.84549 43.3634 6.448 43.9607 6.448C46.1108 6.448 48.2211 6.448 50.4111 6.448C50.4111 7.00449 50.4111 7.52123 50.4111 8.11747C48.5795 8.15722 46.7081 8.15722 44.7968 8.15722Z" fill="white"/>
<path d="M5.01942 35.8229C5.01942 36.9358 4.10362 37.8898 2.98874 37.9296C1.87386 37.9693 0.918243 37.0153 0.918243 35.9024C0.878426 34.7894 1.79422 33.8354 2.94892 33.7956C4.02399 33.7559 5.01942 34.7099 5.01942 35.8229Z" fill="white"/>
<path d="M64.5463 56.1745C63.3916 56.1745 62.5156 55.2602 62.5156 54.1075C62.5156 52.9945 63.4314 52.0803 64.5065 52.0405C65.6214 52.0405 66.6168 52.9945 66.6566 54.1075C66.6168 55.2205 65.6612 56.1745 64.5463 56.1745Z" fill="white"/>
<path d="M68.8466 33.7957C69.9615 33.7957 70.9171 34.7496 70.9171 35.8626C70.9171 37.0154 70.0013 37.9296 68.8864 37.9296C67.7715 37.9296 66.8159 37.0154 66.8159 35.8626C66.8159 34.7496 67.7317 33.7957 68.8466 33.7957Z" fill="white"/>
<path d="M9.35941 54.1075C9.35941 55.2603 8.48343 56.1745 7.32873 56.1745C6.21385 56.1745 5.25824 55.2603 5.25824 54.1473C5.21842 53.074 6.21385 52.0803 7.28892 52.0803C8.4038 52.0406 9.3196 52.9945 9.35941 54.1075Z" fill="white"/>
<path d="M17.6814 5.2156C18.7963 5.25535 19.7121 6.24909 19.6723 7.36207C19.6325 8.47506 18.637 9.38929 17.5221 9.34954C16.4073 9.30979 15.4915 8.35581 15.5313 7.24283C15.6109 6.09009 16.5665 5.17585 17.6814 5.2156Z" fill="white"/>
<path d="M9.35946 17.6175C9.35946 18.7304 8.36403 19.6844 7.28896 19.6447C6.17408 19.6049 5.21846 18.6509 5.25828 17.538C5.25828 16.425 6.2139 15.5107 7.3686 15.5107C8.44366 15.5505 9.35946 16.4647 9.35946 17.6175Z" fill="white"/>
<path d="M17.6017 66.4697C16.4868 66.4697 15.5312 65.5157 15.571 64.4027C15.571 63.2897 16.5266 62.3755 17.6415 62.3755C18.7564 62.3755 19.712 63.3295 19.712 64.4425C19.6722 65.5554 18.7166 66.5094 17.6017 66.4697Z" fill="white"/>
<path d="M64.5461 15.5506C65.661 15.5506 66.6166 16.5443 66.5768 17.6175C66.5369 18.7305 65.5813 19.6845 64.5063 19.6448C63.3914 19.6448 62.4756 18.6908 62.4756 17.538C62.4756 16.4251 63.4312 15.5108 64.5461 15.5506Z" fill="white"/>
<path d="M35.9177 4.93745C34.8028 4.93745 33.8472 3.98347 33.8472 2.87048C33.8472 1.7575 34.8028 0.843262 35.9177 0.843262C37.0724 0.843262 37.9882 1.79725 37.9882 2.91023C37.9882 4.06297 37.0326 4.9772 35.9177 4.93745Z" fill="white"/>
<path d="M35.9177 70.842C34.763 70.842 33.8472 69.9278 33.8472 68.8148C33.8472 67.7018 34.8028 66.7478 35.9177 66.7478C37.0326 66.7478 37.9882 67.662 37.9882 68.775C37.9882 69.888 37.0724 70.842 35.9177 70.842Z" fill="white"/>
<path d="M52.2029 64.4026C52.2029 63.2499 53.1585 62.3754 54.3132 62.4151C55.4281 62.4549 56.3041 63.3691 56.3041 64.4821C56.3041 65.5951 55.3485 66.5491 54.2336 66.5093C53.0789 66.4696 52.1631 65.5156 52.2029 64.4026Z" fill="white"/>
<path d="M56.2643 7.32242C56.2244 8.47515 55.3087 9.38939 54.1938 9.34964C53.0789 9.30989 52.1631 8.4354 52.1631 7.32242C52.1631 6.16968 53.0789 5.25544 54.2336 5.29519C55.3883 5.25544 56.3041 6.20943 56.2643 7.32242Z" fill="white"/>
<path d="M35.0815 57.8838C35.639 57.8838 36.1964 57.8838 36.7539 57.8838C36.7539 60.2688 36.7539 62.614 36.7539 64.9989C36.1964 64.9989 35.639 64.9989 35.0815 64.9989C35.0815 62.6537 35.0815 60.2688 35.0815 57.8838Z" fill="white"/>
<path d="M36.7538 13.722C36.1964 13.722 35.6788 13.722 35.1213 13.722C35.1213 11.3768 35.1213 9.07129 35.1213 6.72607C35.6788 6.72607 36.1964 6.72607 36.7538 6.72607C36.7538 9.03154 36.7538 11.337 36.7538 13.722Z" fill="white"/>
<path d="M6.77148 36.6178C6.77148 36.0613 6.77148 35.5446 6.77148 35.0278C9.1207 35.0278 11.4301 35.0278 13.7793 35.0278C13.7793 35.5446 13.7793 36.0613 13.7793 36.6178C11.4301 36.6178 9.1207 36.6178 6.77148 36.6178Z" fill="white"/>
<path d="M58.0562 36.6576C58.0562 36.0614 58.0562 35.5844 58.0562 35.0676C60.4054 35.0676 62.7148 35.0676 65.064 35.0676C65.064 35.5844 65.064 36.1011 65.064 36.6576C62.7546 36.6576 60.4054 36.6576 58.0562 36.6576Z" fill="white"/>
<path d="M27.3569 34.5508C33.0906 34.5508 38.7845 34.5508 44.558 34.5508C44.558 34.829 44.558 35.0675 44.558 35.2663C44.558 38.0885 44.558 40.9107 44.558 43.7329C44.558 45.8794 43.1246 47.3501 40.9346 47.3501C37.5502 47.3501 34.2055 47.3501 30.821 47.3501C28.8302 47.3501 27.3171 45.9986 27.2773 44.0906C27.1977 41.0299 27.2375 37.9295 27.2375 34.829C27.2773 34.7893 27.3171 34.67 27.3569 34.5508ZM35.9177 41.7852C36.5946 41.7852 37.3113 41.7852 37.9882 41.7852C38.5854 41.7852 38.9836 41.3877 38.9836 40.9107C38.9836 40.4337 38.5854 40.0362 37.9882 40.0362C36.5946 40.0362 35.2408 40.0362 33.8472 40.0362C33.2499 40.0362 32.8517 40.4337 32.8517 40.9107C32.8517 41.4274 33.2499 41.7852 33.8472 41.7852C34.5639 41.8249 35.2408 41.7852 35.9177 41.7852Z" fill="white"/>
<path d="M41.6912 32.7224C37.7891 32.7224 34.0463 32.7224 30.2238 32.7224C30.184 30.5361 29.8655 28.3102 31.4183 26.4419C32.9314 24.6135 34.8824 23.8582 37.1918 24.375C39.5012 24.8917 41.0541 26.4022 41.4921 28.7872C41.6912 30.0591 41.6115 31.3709 41.6912 32.7224Z" fill="white"/>
</svg>
