<svg width="41" height="41" viewBox="0 0 41 41" fill="none" xmlns="http://www.w3.org/2000/svg">
<g filter="url(#filter0_d_1727_363678)">
<path d="M29.875 24.3516H24.25C23.2188 24.3516 22.375 23.5078 22.375 22.4766C22.375 21.4453 23.2188 20.6016 24.25 20.6016H29.875C29.875 20.6016 35.5 14.332 35.5 11.2266C35.5 8.12109 32.9805 5.60156 29.875 5.60156C26.7695 5.60156 24.25 8.12109 24.25 11.2266C24.25 12.7207 25.5508 14.9414 26.9043 16.8516H24.25C21.1504 16.8516 18.625 19.377 18.625 22.4766C18.625 25.5762 21.1504 28.1016 24.25 28.1016H29.875C30.9062 28.1016 31.75 28.9453 31.75 29.9766C31.75 31.0078 30.9062 31.8516 29.875 31.8516H16.3691C15.4316 33.3047 14.3887 34.6465 13.5977 35.6016H29.875C32.9746 35.6016 35.5 33.0762 35.5 29.9766C35.5 26.877 32.9746 24.3516 29.875 24.3516ZM29.875 9.35156C30.9121 9.35156 31.75 10.1895 31.75 11.2266C31.75 12.2637 30.9121 13.1016 29.875 13.1016C28.8379 13.1016 28 12.2637 28 11.2266C28 10.1895 28.8379 9.35156 29.875 9.35156ZM11.125 20.6016C8.01953 20.6016 5.5 23.1211 5.5 26.2266C5.5 29.332 11.125 35.6016 11.125 35.6016C11.125 35.6016 16.75 29.332 16.75 26.2266C16.75 23.1211 14.2305 20.6016 11.125 20.6016ZM11.125 28.1016C10.0879 28.1016 9.25 27.2637 9.25 26.2266C9.25 25.1895 10.0879 24.3516 11.125 24.3516C12.1621 24.3516 13 25.1895 13 26.2266C13 27.2637 12.1621 28.1016 11.125 28.1016Z" fill="white"/>
</g>
<defs>
<filter id="filter0_d_1727_363678" x="0.5" y="0.601562" width="40" height="40" filterUnits="userSpaceOnUse" color-interpolation-filters="sRGB">
<feFlood flood-opacity="0" result="BackgroundImageFix"/>
<feColorMatrix in="SourceAlpha" type="matrix" values="0 0 0 0 0 0 0 0 0 0 0 0 0 0 0 0 0 0 127 0" result="hardAlpha"/>
<feOffset/>
<feGaussianBlur stdDeviation="2.5"/>
<feComposite in2="hardAlpha" operator="out"/>
<feColorMatrix type="matrix" values="0 0 0 0 0 0 0 0 0 0 0 0 0 0 0 0 0 0 0.65 0"/>
<feBlend mode="normal" in2="BackgroundImageFix" result="effect1_dropShadow_1727_363678"/>
<feBlend mode="normal" in="SourceGraphic" in2="effect1_dropShadow_1727_363678" result="shape"/>
</filter>
</defs>
</svg>
