<svg width="513" height="130" viewBox="0 0 513 130" fill="none" xmlns="http://www.w3.org/2000/svg">
<g filter="url(#filter0_d_1494_363784)">
<g filter="url(#filter1_d_1494_363784)">
<path d="M40.8811 50.7426C37.6095 44.5568 36.0495 32.2853 35.9439 26.197C35.9343 25.8273 35.9997 25.4595 36.1363 25.1158C36.2729 24.7721 36.4778 24.4597 36.7385 24.1974C36.9993 23.9352 37.3105 23.7285 37.6534 23.5899C37.9963 23.4513 38.3637 23.3837 38.7334 23.3912C43.9795 23.4968 55.5982 24.851 61.4211 34.2733" stroke="white" stroke-width="6" stroke-linecap="round" stroke-linejoin="round" shape-rendering="crispEdges"/>
</g>
<g filter="url(#filter2_d_1494_363784)">
<path d="M137.122 50.7426C140.394 44.5568 141.954 32.2853 142.059 26.197C142.069 25.8273 142.003 25.4595 141.867 25.1158C141.73 24.7721 141.525 24.4597 141.264 24.1974C141.004 23.9352 140.693 23.7285 140.35 23.5899C140.007 23.4513 139.639 23.3837 139.27 23.3912C134.024 23.4968 122.405 24.851 116.582 34.2733" stroke="white" stroke-width="6" stroke-linecap="round" stroke-linejoin="round" shape-rendering="crispEdges"/>
</g>
<g filter="url(#filter3_d_1494_363784)">
<path d="M89 29.3789C78.5507 29.3799 68.2974 32.2151 59.332 37.5825C50.3666 42.95 43.0249 50.6486 38.0888 59.8585C36.8413 62.192 36.1886 64.7972 36.1886 67.4432C36.1886 70.0892 36.8413 72.6944 38.0888 75.0279C43.0244 84.2381 50.366 91.9369 59.3316 97.3042C68.2971 102.671 78.5507 105.506 89 105.506C99.4493 105.506 109.703 102.671 118.668 97.3042C127.634 91.9369 134.976 84.2381 139.911 75.0279C141.159 72.6944 141.811 70.0892 141.811 67.4432C141.811 64.7972 141.159 62.192 139.911 59.8585C134.975 50.6486 127.633 42.95 118.668 37.5825C109.703 32.2151 99.4493 29.3799 89 29.3789Z" stroke="white" stroke-width="4" stroke-linecap="round" stroke-linejoin="round" shape-rendering="crispEdges"/>
</g>
<path d="M89 101.2C98.2917 101.2 105.824 95.4982 105.824 88.4651C105.824 81.4319 98.2917 75.7305 89 75.7305C79.7083 75.7305 72.1758 81.4319 72.1758 88.4651C72.1758 95.4982 79.7083 101.2 89 101.2Z" stroke="white" stroke-width="4" stroke-linecap="round" stroke-linejoin="round"/>
<g filter="url(#filter4_d_1494_363784)">
<path d="M89 92.8715C93.0176 92.8715 96.2746 90.4063 96.2746 87.3654C96.2746 84.3245 93.0176 81.8594 89 81.8594C84.9823 81.8594 81.7254 84.3245 81.7254 87.3654C81.7254 90.4063 84.9823 92.8715 89 92.8715Z" fill="white"/>
<path d="M89 92.8715C93.0176 92.8715 96.2746 90.4063 96.2746 87.3654C96.2746 84.3245 93.0176 81.8594 89 81.8594C84.9823 81.8594 81.7254 84.3245 81.7254 87.3654C81.7254 90.4063 84.9823 92.8715 89 92.8715Z" stroke="white" stroke-width="2" stroke-linecap="round" stroke-linejoin="round"/>
</g>
<path d="M80.9454 77.2837C84.6017 70.7891 85.0567 62.6912 80.9454 58.8264C76.3413 54.5066 60.9092 55.2785 51.0292 75.7291C53.5194 81.9637 57.5854 87.445 62.8293 91.6369C68.0732 95.8288 74.3155 98.5877 80.9454 99.6437" stroke="white" stroke-width="4" stroke-linecap="round" stroke-linejoin="round"/>
<g filter="url(#filter5_d_1494_363784)">
<path d="M75.8809 67.4219C77.0027 67.4219 77.9121 66.5125 77.9121 65.3906C77.9121 64.2688 77.0027 63.3594 75.8809 63.3594C74.759 63.3594 73.8496 64.2688 73.8496 65.3906C73.8496 66.5125 74.759 67.4219 75.8809 67.4219Z" fill="white"/>
<path d="M75.8809 68.4219C77.555 68.4219 78.9121 67.0647 78.9121 65.3906C78.9121 63.7165 77.555 62.3594 75.8809 62.3594C74.2067 62.3594 72.8496 63.7165 72.8496 65.3906C72.8496 67.0647 74.2067 68.4219 75.8809 68.4219Z" stroke="white" stroke-width="2"/>
</g>
<path d="M97.0546 77.2837C93.3983 70.7891 92.9433 62.6912 97.0546 58.8264C101.659 54.5066 117.091 55.2785 126.971 75.7291C124.481 81.9637 120.415 87.445 115.171 91.6369C109.927 95.8288 103.685 98.5877 97.0546 99.6437" stroke="white" stroke-width="4" stroke-linecap="round" stroke-linejoin="round"/>
<path d="M52.9088 72.1881C51.5138 70.2239 50.2664 68.159 49.1767 66.0104C49.1767 66.0104 58.1305 54.8954 69.8602 54.8954C72.4003 54.7776 78.167 56.8813 78.167 56.8813" stroke="white" stroke-width="4" stroke-linecap="round" stroke-linejoin="round"/>
<g filter="url(#filter6_d_1494_363784)">
<path d="M102.119 67.4219C103.241 67.4219 104.15 66.5125 104.15 65.3906C104.15 64.2688 103.241 63.3594 102.119 63.3594C100.997 63.3594 100.088 64.2688 100.088 65.3906C100.088 66.5125 100.997 67.4219 102.119 67.4219Z" fill="white"/>
<path d="M102.119 68.4219C103.793 68.4219 105.15 67.0647 105.15 65.3906C105.15 63.7165 103.793 62.3594 102.119 62.3594C100.445 62.3594 99.0879 63.7165 99.0879 65.3906C99.0879 67.0647 100.445 68.4219 102.119 68.4219Z" stroke="white" stroke-width="2"/>
</g>
<path d="M125.091 72.184C126.486 70.2198 127.734 68.1549 128.823 66.0063C128.823 66.0063 119.87 54.8913 108.14 54.8913C105.6 54.7735 103.092 55.5002 101.009 56.9577" stroke="white" stroke-width="4" stroke-linecap="round" stroke-linejoin="round"/>
</g>
<g filter="url(#filter7_d_1494_363784)">
<path d="M189.2 81.3L190.4 81.14L188.88 80.74L190.24 80.58L188.64 80.18L190.08 80.02L188.32 79.62L189.92 79.46L188 79.06L189.84 78.9L188 78.5L189.84 78.26L188 77.86L189.84 77.7L188.08 77.3L189.84 77.14L188.08 76.74L189.92 76.58L188.08 76.18L189.92 76.02L188.16 75.62L189.92 75.46L188.24 75.06L190 74.9L188.32 74.5L190 74.34L188.4 73.86L190.08 73.7L188.48 73.3L190.16 73.14L188.56 72.74L190.24 72.58L188.64 72.18L190.24 72.02L188.8 71.62L190.32 71.46L188.96 71.06L190.4 70.9L189.12 70.5L190.56 70.34L189.2 69.94L190.64 69.7L189.36 69.3L190.72 69.14L189.52 68.74L190.8 68.58L189.68 68.18L190.88 68.02L189.84 67.62L190.96 67.46L190 67.06L191.04 66.9L190.16 66.5L191.12 66.34L190.32 65.94L191.2 65.7L190.4 65.3L191.28 65.14L190.56 64.74L191.36 64.58L190.64 64.18L191.44 64.02L190.72 63.62L191.44 63.46L190.8 63.06L191.52 62.9L190.88 62.5L191.52 62.34L190.96 61.94L191.6 61.78L190.96 61.3L191.6 61.14L191.04 60.66L191.6 60.5L191.04 60.1L191.68 59.86L191.12 59.46L191.68 59.3L191.12 58.9L191.68 58.66L191.2 58.26L191.76 58.1L191.2 57.7L191.76 57.46L191.28 57.06L191.76 56.9L191.28 56.5L191.76 56.26L191.36 55.94L191.76 55.7L191.36 55.38L191.68 55.14L191.28 54.82L191.6 54.5L191.2 54.26L191.36 53.94L191.12 53.7V53.54L190.72 53.38V52.98L189.92 52.74L189.84 52.58H189.36L189.2 52.42H188.72L188.48 52.26H188.16L187.84 52.18L187.6 52.1H187.2L186.8 52.02H186.24L185.68 52.1H185.12H184.56H183.92H184H183.2H183.44L182.48 52.18L181.84 52.26H181.76L181.28 52.34L181.2 52.26L180.56 52.42L180.4 52.26L179.68 52.42L179.52 52.02H178.56L178.48 51.7L177.92 51.78V51.54L177.52 51.62L177.68 51.38L177.44 51.3L177.2 51.38L177.28 51.3L177.44 50.98L176.8 50.82L177.12 50.42L176.32 50.1L176.8 49.62L176.16 48.98L176.56 48.74L176 48.34L176.48 48.1L175.92 47.62L176.4 47.46L175.84 46.98L176.32 46.82L175.76 46.34L176.24 46.18L175.68 45.78L176.16 45.54L175.6 45.14L176.16 44.98L175.52 44.58L176.08 44.42L175.44 44.02L176.08 43.86L175.36 43.38L176.08 43.22L175.36 42.74L176.08 42.66L175.36 42.1L176.08 42.02L175.36 41.46L176.16 41.38L175.44 40.66H176.48L175.68 39.62L176.8 39.94L176.32 38.58L177.36 38.98L176.88 37.7L177.92 38.42V36.98L178.56 37.86L178.72 36.66L179.28 37.54L179.52 36.42L180 37.3L180.32 36.26L180.64 37.14L181.04 36.1L181.28 37.06L181.6 36.1L181.84 36.98L182.24 36.02L182.48 36.9L182.88 36.02L183.04 36.9L183.44 36.02L183.6 36.9L184 36.02L184.16 36.9L184.56 36.02L184.72 36.9L185.12 36.02L185.28 36.9L185.68 36.02L185.92 36.9L186.32 36.02L186.48 36.9L186.88 36.02L187.04 36.9L187.44 36.02L187.68 36.9L188.08 36.02L188.24 36.9L188.64 36.02L188.8 36.9L189.2 36.02L189.36 36.9L189.76 36.02L189.92 36.9L190.32 36.02L190.48 36.9L190.88 36.02L191.04 36.9L191.44 35.94L191.6 36.82L192 35.94L192.16 36.82L192.64 35.94L192.8 36.82L193.2 35.86L193.36 36.82L193.76 35.86L193.92 36.74L194.32 35.78L194.48 36.74L194.88 35.78L195.04 36.74L195.44 35.78L195.6 36.74L196 35.78L196.16 36.74L196.56 35.7L196.8 36.74L197.2 35.7L197.36 36.74L197.76 35.7L197.92 36.66L198.32 35.7L198.48 36.66L198.88 35.7L199.04 36.66L199.44 35.62L199.6 36.66L200 35.62L200.16 36.66L200.56 35.54L200.72 36.58L201.12 35.54L201.36 36.58L201.76 35.46L201.92 36.5L202.32 35.38L202.48 36.5L202.88 35.38L203.04 36.5L203.44 35.3L203.6 36.42L204 35.22L204.16 36.42L204.56 35.22L204.72 36.42L205.12 35.22L205.28 36.42L205.76 35.22L205.92 36.42L206.32 35.22L206.48 36.42L206.88 35.22L207.04 36.42L207.44 35.22L207.6 36.42L208 35.3L208.16 36.5L208.56 35.38L208.72 36.5L209.12 35.46L209.28 36.58L209.68 35.46L209.92 36.58L210.32 35.54L210.48 36.66L210.88 35.62L211.04 36.74L211.44 35.7L211.6 36.74L212 35.78L212.16 36.82L212.56 35.86L212.72 36.82L213.12 35.94L213.28 36.9L213.76 36.02L213.92 36.9L214.32 36.1L214.48 36.98L214.88 36.18L215.12 36.98L215.52 36.26L215.68 37.06L216.08 36.26L216.24 37.06L216.64 36.34L216.8 37.06L217.2 36.34L217.36 37.06L217.84 36.34L218 37.14L218.48 36.34L218.64 37.14L219.12 36.34L219.28 37.14L219.84 36.26L219.92 37.14L220.56 36.26L220.64 37.14L221.2 36.34L221.28 37.22L222 36.34V37.54L223.04 36.58L222.8 37.86L224.24 37.14L223.84 38.34L225.28 37.78L224.48 38.9L226 38.74L224.96 39.62L226.64 39.78L225.52 40.58L227.04 40.9L225.92 41.3L227.2 41.7L226.08 42.1L227.28 42.5L226.16 42.74L227.28 43.22L226.24 43.38L227.36 43.86L226.32 44.02L227.36 44.42L226.32 44.66L227.44 45.06L226.32 45.22L227.44 45.7L226.32 45.86L227.44 46.26L226.32 46.42L227.44 46.9L226.32 47.06L227.36 47.62L226.24 47.7L227.28 48.26H226.16L227.2 48.98L226 48.9L227.04 49.7L225.68 49.54L226.8 50.58L225.36 50.26L226.32 51.46L224.96 50.98L225.76 52.34L224.32 51.54L224.72 53.3L223.68 52.18V53.78L223.04 52.74L222.96 54.02L222.4 52.9L222.24 54.18L221.76 53.06L221.44 54.34L221.12 53.22L220.8 54.42L220.48 53.3L220.08 54.42L219.76 53.38L219.36 54.42L219.12 53.38L218.72 54.42L218.56 53.38L218.08 54.42L217.92 53.38L217.52 54.42L217.36 53.38L216.88 54.34L216.72 53.38L216.32 54.34L216.16 53.38L215.76 54.26L215.6 53.38L215.2 54.26L215.04 53.38L214.64 54.26L214.48 53.3L214.08 54.26L213.84 53.46L213.52 54.34L213.2 53.54L212.96 54.42L212.72 53.78L212.64 54.42L212.48 54.34L212.56 54.58L211.68 53.94L211.92 55.06L212 55.14L211.28 54.98L211.84 55.54L211.12 55.46L211.76 55.94H211.04L211.68 56.34L210.96 56.42L211.68 56.82L210.88 56.9L211.68 57.3L210.8 57.46L211.68 57.86L210.8 58.02L211.68 58.5L210.72 58.66L211.76 59.14L210.8 59.3L211.76 59.7L210.8 59.86L211.76 60.26L210.88 60.42L211.84 60.82L210.88 61.06L211.84 61.46L210.88 61.62L211.92 62.02L210.88 62.18L211.92 62.58L210.88 62.74L211.92 63.22L210.96 63.38L212 63.78L210.96 63.94L212.08 64.42L211.04 64.58L212.08 64.98L211.04 65.14L212.16 65.54L211.12 65.7L212.24 66.1L211.12 66.26L212.32 66.66L211.2 66.82L212.4 67.22L211.2 67.38L212.48 67.78L211.28 67.94L212.56 68.34L211.28 68.58L212.56 68.98L211.36 69.14L212.64 69.54L211.36 69.7L212.72 70.1L211.36 70.26L212.72 70.66L211.36 70.82L212.72 71.22L211.36 71.38L212.72 71.78L211.36 71.94L212.64 72.34L211.36 72.5L212.64 72.9L211.28 73.06L212.56 73.46L211.28 73.62L212.48 74.02L211.2 74.18L212.4 74.58L211.2 74.82L212.32 75.22L211.12 75.38L212.24 75.78L211.12 75.94L212.16 76.34L211.04 76.5L212.08 76.9L210.96 77.06L212 77.46L210.96 77.62L211.92 78.02L210.88 78.18L211.84 78.58L210.88 78.74L211.76 79.14L210.88 79.3L211.76 79.7L210.8 79.86L211.76 80.34L210.88 80.5L211.76 80.82L210.88 81.06L211.84 81.38L210.88 81.62L211.84 81.94L210.88 82.18L211.92 82.58L210.96 82.74L212 83.14L210.96 83.3L212.08 83.7L211.04 83.86L212.08 84.34L211.04 84.5L212.16 84.9L211.04 85.06L212.16 85.54L211.04 85.7L212.16 86.18L210.96 86.26L212.16 86.82L210.88 86.9L212.08 87.54H210.72L211.92 88.26L210.48 88.18L211.76 89.06L210.16 88.82L211.36 90.02L209.68 89.46L210.56 91.14L209.2 90.18L209.68 91.78L208.48 90.66L208.64 92.5L207.52 91.3L207.44 92.9L206.88 91.7L206.56 92.98L206.16 91.86L205.84 92.98L205.52 91.94L205.12 92.98L204.88 92.02L204.48 92.98L204.24 92.02L203.84 92.98L203.68 92.1L203.28 92.98L203.04 92.1L202.64 93.06L202.48 92.18L202.08 93.06L201.84 92.18L201.44 93.14L201.28 92.26L200.8 93.22L200.64 92.26L200.24 93.38L200.08 92.34L199.68 93.46L199.52 92.42L199.04 93.62L198.88 92.5L198.48 93.7L198.32 92.58L197.84 93.86L197.68 92.58L197.2 93.94L197.04 92.5L196.48 94.02L196.4 92.42L195.6 94.02L195.68 92.34L194.8 93.94L194.96 92.18L193.92 93.78L194.32 92.1L193.2 93.54L193.76 91.3L191.84 92.9L193.04 90.66L190.64 91.7L192.24 90.1L189.92 90.5L191.68 89.38L189.52 89.46L191.28 88.66L189.28 88.5L191.04 87.86L189.12 87.62L190.88 87.14L189.12 86.82L190.72 86.42L189.12 86.02L190.72 85.78L189.12 85.3L190.64 85.06L189.2 84.66L190.64 84.42L189.28 83.94L190.64 83.78L189.36 83.3L190.64 83.22L189.44 82.74L190.72 82.58L189.44 82.18L190.08 82.1L189.52 81.94L190.64 81.78L189.2 81.3ZM185.28 51.94L185.12 52.02H185.52H185.68L185.28 51.94ZM185.84 51.94L185.68 52.02H186.16H186.32L185.84 51.94ZM184.72 51.94L184.56 52.02L184.96 52.1L185.12 52.02L184.72 51.94ZM186.4 51.94L186.32 52.02H186.72H187.04L186.4 51.94ZM184.16 52.02L183.92 52.1H184.4L184.56 52.02H184.16ZM187.2 52.1H187.36H187.76L187.04 52.02L187.44 52.1H187.36H187.2ZM183.04 52.1H182.64H182.72H183.2H183.28H183.76H183.92L183.6 52.02L183.28 52.1H183.04ZM188 52.1H187.84H187.92H188ZM226.519 79.86L226.919 79.94L226.599 79.38L227.079 79.46L226.599 78.82L227.239 78.98L226.679 78.26L227.319 78.42L226.679 77.7L227.559 77.86L226.839 77.22L227.799 77.38L227.159 76.74L228.039 76.9L227.399 76.26L228.199 76.34L227.639 75.78L228.439 75.86L227.879 75.22L228.679 75.3L228.119 74.74L228.919 74.82L228.359 74.26H229.079L228.519 73.7L229.239 73.78L228.759 73.14L229.479 73.22L228.919 72.66H229.639L229.079 72.1H229.799L229.239 71.54L229.959 71.62L229.399 70.98L230.119 71.06L229.559 70.42L230.199 70.5L229.639 69.86L230.359 69.94L229.799 69.38H230.519L229.879 68.82H230.679L230.039 68.26H230.759L230.119 67.7L230.919 67.78L230.279 67.14L231.079 67.22L230.439 66.58L231.239 66.66L230.519 66.02L231.399 66.1L230.679 65.46L231.559 65.54L230.839 64.9L231.639 64.98L230.919 64.34L231.799 64.42L231.079 63.78L231.959 63.86L231.159 63.22L232.039 63.3L231.319 62.66L232.199 62.74L231.399 62.1L232.279 62.18L231.479 61.54L232.439 61.62L231.559 60.98L232.519 61.06L231.639 60.42L232.679 60.5L231.719 59.86L232.759 59.94L231.799 59.22L232.919 59.38L231.879 58.66L233.079 58.9L232.039 58.1L233.159 58.34L232.199 57.54L233.319 57.78L232.279 56.98L233.559 57.22L232.519 56.42L233.719 56.66L232.679 55.94L233.879 56.1L232.839 55.38L234.119 55.54L233.079 54.82L234.279 55.06L233.319 54.26L234.519 54.5L233.559 53.78L234.759 53.94L233.879 53.22L234.999 53.46L234.119 52.66L235.239 52.9L234.359 52.18L235.479 52.34L234.679 51.62L235.719 51.86L234.999 51.06L236.039 51.3L235.319 50.5L236.359 50.74L235.639 49.94L236.759 50.26L236.119 49.3L236.759 49.54L236.359 48.98L236.999 49.22L236.519 48.74L237.399 48.82L236.759 48.18L237.559 48.26L236.919 47.7L237.719 47.78L237.079 47.14L237.959 47.22L237.239 46.58L238.119 46.66L237.399 46.02L238.279 46.1L237.559 45.46L238.439 45.54L237.719 44.9L238.599 44.98L237.879 44.34L238.759 44.42L238.039 43.7L238.919 43.86L238.199 43.14L239.159 43.3L238.359 42.5L239.319 42.74L238.519 41.94L239.559 42.18L238.759 41.3L239.799 41.62L238.999 40.66L240.119 41.06L239.319 40.02L240.439 40.5L239.639 39.38L240.839 39.94L240.119 38.74L241.239 39.38L240.599 38.1L241.719 38.9L241.239 37.54L242.279 38.42L241.959 36.98L242.919 38.02L242.839 36.58L243.639 37.7L243.799 36.18L244.439 37.38L244.679 35.94L245.159 37.14L245.559 35.78L245.879 36.98L246.359 35.7L246.599 36.9L247.079 35.7L247.319 36.74L247.719 35.62L247.959 36.74L248.359 35.62L248.519 36.74L248.999 35.62L249.159 36.66L249.639 35.62L249.799 36.66L250.199 35.62L250.359 36.66L250.839 35.54L250.999 36.66L251.399 35.54L251.559 36.66L252.039 35.54L252.199 36.66L252.599 35.54L252.759 36.66L253.239 35.54L253.399 36.66L253.799 35.54L253.959 36.66L254.359 35.54L254.599 36.66L254.999 35.62L255.159 36.66L255.559 35.62L255.719 36.66L256.199 35.62L256.359 36.74L256.839 35.62L256.919 36.74L257.399 35.7L257.559 36.74L258.039 35.78L258.199 36.9L258.759 35.78L258.839 36.9L259.399 35.86L259.479 37.06L260.119 36.02V37.14L260.839 36.18L260.759 37.38L261.559 36.42L261.399 37.62L262.359 36.74L262.039 37.94L263.079 37.22L262.599 38.34L263.799 37.7L263.159 38.82L264.439 38.34L263.719 39.3L264.919 39.06L264.199 39.86L265.399 39.7L264.519 40.42L265.719 40.34L264.919 40.98H266.039L265.159 41.54H266.279L265.479 42.1H266.519L265.639 42.66L266.839 42.74L265.959 43.3H267.079L266.199 43.86L267.319 43.94L266.359 44.42L267.559 44.5L266.599 44.98L267.799 45.06L266.839 45.54L268.039 45.62L267.079 46.1L268.279 46.18L267.319 46.74H268.519L267.559 47.3H268.759L268.279 47.54L268.839 47.46L268.119 48.02L269.079 47.78L268.039 48.74L269.559 48.5L268.519 49.3L269.879 49.14L268.839 49.78L270.199 49.7L269.159 50.34H270.519L269.399 50.9H270.759L269.639 51.46H270.999L269.879 52.02H271.159L270.039 52.58H271.399L270.279 53.14H271.639L270.439 53.62L271.799 53.7L270.679 54.18L272.039 54.26L270.839 54.74H272.199L270.999 55.3H272.439L271.159 55.86H272.599L271.399 56.42H272.759L271.559 56.9L272.919 56.98L271.719 57.46L273.159 57.54L271.879 58.02H273.319L272.039 58.58H273.479L272.199 59.14H273.719L272.359 59.62L273.879 59.7L272.599 60.18H274.039L272.759 60.74H274.199L272.919 61.3H274.439L273.079 61.78H274.599L273.239 62.34H274.759L273.399 62.9H274.919L273.559 63.38H275.079L273.799 63.94H275.319L273.959 64.5L275.479 64.42L274.119 64.98L275.639 64.9L274.279 65.54L275.879 65.46L274.519 66.02L276.039 65.94L274.679 66.58L276.199 66.42L274.919 67.06L276.439 66.9L275.079 67.54L276.599 67.38L275.319 68.02L276.759 67.78L275.639 68.42L276.999 68.18L275.959 68.74L277.159 68.42L276.599 68.82L277.239 68.58L275.879 69.7L277.639 69.06L275.879 70.5L278.199 70.02L276.519 71.06L278.519 70.74L276.919 71.62L278.839 71.38L277.159 72.26L279.079 72.02L277.479 72.82L279.319 72.66L277.639 73.38L279.479 73.22L277.879 73.94L279.639 73.78L278.039 74.5L279.879 74.34L278.279 75.06L280.039 74.98L278.439 75.62L280.199 75.54L278.599 76.18L280.359 76.1L278.759 76.66L280.439 76.58L278.919 77.22L280.599 77.14L279.079 77.78L280.679 77.7L279.159 78.34L280.839 78.26L279.319 78.9L280.919 78.82L279.479 79.38L280.999 79.3L279.639 79.94L281.079 79.86L279.799 80.42L281.159 80.34L279.959 80.98L281.319 80.82L280.119 81.46L281.399 81.3L280.359 81.86L281.399 81.7L280.119 82.58L281.719 82.34L280.199 83.22L281.879 83.14L280.599 83.86L282.039 83.78L280.679 84.5H282.199L280.839 85.14L282.359 85.22L280.919 85.86L282.439 86.1L280.999 86.58L282.519 86.98L281.079 87.38L282.519 87.86L280.919 88.1L282.439 88.98L280.599 89.3L281.879 90.5L280.999 90.02L281.159 90.34L281.559 90.66L281.319 90.58L281.479 90.82L280.519 90.34L281.079 91.22L279.719 90.5L279.959 92.18L278.999 90.98L278.679 92.5L278.199 91.54L277.879 92.66L277.479 91.7L277.159 92.66L276.839 91.78L276.519 92.66L276.199 91.86L275.799 92.66L275.639 91.86L275.239 92.58L274.999 91.78L274.599 92.5L274.439 91.78L274.039 92.42L273.799 91.78L273.399 92.34L273.239 91.7L272.839 92.26L272.599 91.7L272.199 92.18L272.039 91.62L271.639 92.18L271.479 91.62L270.999 92.1L270.839 91.54L270.439 92.02L270.279 91.54L269.799 92.02L269.639 91.46L269.239 91.94L269.079 91.46L268.599 91.86L268.439 91.3L267.879 91.78L267.719 91.22L267.159 91.62L267.079 91.06L266.359 91.46V90.82L265.639 91.14L265.719 90.5L264.919 90.74L265.079 90.18L264.279 90.26L264.599 89.78H263.799L264.119 89.3H263.319L263.719 88.82H262.919L263.319 88.34H262.519L262.919 87.86H262.199L262.599 87.46H261.799L262.199 87.06L261.479 87.14L261.879 86.66L261.079 86.82L261.479 86.34L260.759 86.58L261.079 86.18L260.439 86.42L260.759 85.94L260.119 86.34L260.279 85.78L259.799 86.26L259.959 85.62L259.399 86.18L259.479 85.46L258.999 86.18L259.079 85.38L258.599 86.1L258.519 85.3L258.119 86.1L258.039 85.22L257.639 86.1L257.479 85.14L257.079 86.18L256.999 85.14L256.519 86.18L256.359 85.06L255.959 86.18L255.799 85.14L255.399 86.18L255.239 85.14L254.839 86.26L254.679 85.14L254.279 86.26L254.119 85.14L253.719 86.26L253.559 85.22L253.159 86.26L252.999 85.22L252.599 86.34L252.439 85.22L252.039 86.34L251.879 85.22L251.479 86.42L251.239 85.3L250.919 86.42L250.679 85.3L250.359 86.5L250.119 85.38L249.719 86.58L249.559 85.38L249.159 86.66L248.999 85.3L248.519 86.74L248.359 85.46L247.879 86.82L247.719 85.54L247.399 86.9L247.159 85.78L246.919 87.06L246.679 85.94L246.519 87.14L246.279 86.26L246.199 87.3L245.959 86.58L246.039 87.38L245.799 86.9L245.879 87.54L245.559 87.06L245.799 87.62L245.319 87.06L245.639 87.78L244.999 87.22L245.479 87.94L244.759 87.38L245.239 88.18L244.439 87.62L245.079 88.42L243.959 87.78L244.839 88.74L243.559 88.1L244.519 89.14L243.159 88.5L244.199 89.62L242.679 88.9L243.799 90.18L242.199 89.38L243.319 90.74L241.719 89.86L242.679 91.38L241.159 90.26L242.039 92.02L240.599 90.74L241.239 92.58L239.879 91.14L240.279 93.14L239.159 91.46L239.239 93.46L238.439 91.78L238.199 93.7L237.639 92.1L237.319 93.86L236.919 92.26L236.519 93.86L236.199 92.42L235.799 93.94L235.479 92.5L235.079 93.94L234.839 92.5L234.439 93.94L234.199 92.58L233.799 93.94L233.559 92.58L233.159 93.94L232.919 92.58L232.519 93.86L232.279 92.58L231.879 93.86L231.719 92.58L231.239 93.78L231.079 92.58L230.679 93.78L230.519 92.58L230.119 93.78L229.879 92.42L229.479 93.7L229.239 92.34L228.759 93.62L228.599 92.26L227.959 93.46V91.94L227.079 93.22L227.239 91.78L226.119 92.82L226.439 91.54L225.719 92.26L225.639 92.34V92.26L225.479 92.42L225.879 90.98L224.599 91.7L225.399 90.5L224.519 90.66L224.119 90.82L224.279 90.74H224.039L224.759 90.1L223.799 90.18L224.759 89.3L223.399 89.06L224.519 88.58L223.479 87.94L224.439 87.78L223.559 87.22L224.519 87.06L223.799 86.42H224.679L224.039 85.7H224.839L224.199 85.06L224.999 85.14L224.439 84.58H225.159L224.679 84.02H225.399L224.919 83.46L225.559 83.54L225.159 82.98H225.799L225.399 82.42L225.959 82.5L225.639 81.94H226.199L225.879 81.38L226.439 81.46L226.119 80.9H226.599L226.279 80.5L226.839 80.58L226.519 79.86ZM254.119 68.9L254.359 69.78L254.599 68.9L254.839 69.7L255.079 68.9L255.319 69.54H255.399L255.559 68.9L255.639 69.06L256.119 69.3L256.199 69.06L256.039 68.66L256.199 68.74L256.119 68.58H256.199L256.039 68.5L256.759 68.34L255.959 67.94L256.679 67.78L255.879 67.54L256.519 67.3L255.799 67.14L256.439 66.9L255.639 66.74L256.359 66.34L255.399 66.26L256.199 65.78L255.159 65.7L256.039 65.22L254.919 65.14L255.719 64.66L254.679 64.58L255.559 64.1L254.439 64.02L255.319 63.62L254.199 63.54L255.159 63.06L254.039 62.98L254.999 62.5L253.799 62.42L254.839 61.94L253.639 61.86L254.679 61.38L253.479 61.3L254.519 60.82L253.319 60.74L254.359 60.26L253.239 60.18L254.119 59.7L253.079 59.62L253.959 59.14H252.999L253.719 58.66L252.839 58.74L253.559 58.26L252.679 58.34L253.479 57.62L252.759 57.7L252.519 57.86L252.599 57.7L252.519 57.78L252.679 57.54V57.46L252.599 57.3L252.279 57.54V57.22V57.7L252.119 57.54L252.279 57.86L251.479 57.62L251.959 58.34L251.239 58.1L251.799 58.74L250.999 58.58L251.559 59.22L250.839 59.06L251.399 59.7L250.679 59.62L251.319 60.26L250.439 60.18L251.159 60.74L250.279 60.66L251.079 61.3L250.199 61.22L250.919 61.94L250.039 61.86L250.839 62.5L249.799 62.42L250.679 63.22L249.639 63.06L250.519 63.86L249.479 63.7L250.439 64.5L249.319 64.42L250.279 65.14L249.159 65.06L250.119 65.78L249.079 65.7L249.959 66.34L248.999 66.26L249.879 66.82H248.999L249.719 67.3H248.999L249.719 67.62L248.919 67.7L249.719 68.02L249.079 68.1L248.999 68.34L249.639 68.18L249.319 68.5L249.639 68.58L249.879 68.34V68.58V68.5V68.58L249.799 68.74L250.039 68.66L249.799 68.82L249.719 69.14H249.799L250.279 68.42V69.06V68.98V69.06L250.199 69.3L250.679 68.5V69.46L251.079 68.58L251.159 69.62L251.639 68.66L251.719 69.7L252.199 68.66L252.359 69.78L252.759 68.66L252.999 69.86L253.399 68.74L253.479 69.14L253.559 68.82L253.799 69.86L254.119 68.9ZM248.919 68.34L249.079 68.1L248.599 68.18L248.919 68.34ZM255.799 69.22L255.639 69.06L255.719 69.22H255.799ZM255.399 69.7V69.62H255.319L255.399 69.7ZM285.15 82.9L286.75 82.74L285.47 82.34L286.99 82.18L285.79 81.78L287.15 81.62L286.11 81.22L287.31 81.06L286.43 80.66L287.39 80.5L286.43 80.1L287.39 79.94L286.43 79.54L287.39 79.38L286.43 78.98L287.39 78.82L286.43 78.42L287.39 78.26L286.43 77.86L287.39 77.7L286.51 77.3L287.39 77.06L286.51 76.66L287.47 76.5L286.51 76.1L287.47 75.94L286.59 75.54L287.47 75.38L286.59 74.98L287.47 74.82L286.59 74.42L287.55 74.26L286.67 73.86L287.55 73.7L286.67 73.3L287.55 73.14L286.67 72.74L287.55 72.58L286.75 72.18L287.55 72.02L286.75 71.62L287.55 71.46L286.75 71.06L287.55 70.9L286.75 70.5L287.55 70.34L286.75 69.94L287.55 69.78L286.75 69.38L287.55 69.22L286.67 68.82L287.55 68.66L286.67 68.26L287.55 68.1L286.67 67.7L287.47 67.46L286.59 67.06L287.47 66.9L286.59 66.5L287.47 66.34L286.51 65.94L287.47 65.78L286.51 65.38L287.39 65.22L286.43 64.82L287.39 64.66L286.43 64.26L287.39 64.1L286.35 63.7L287.39 63.54L286.35 63.14L287.31 62.98L286.35 62.58L287.31 62.42L286.35 62.02L287.31 61.86L286.35 61.46L287.31 61.3L286.35 60.9L287.31 60.74L286.35 60.34L287.31 60.18L286.35 59.78L287.39 59.62L286.35 59.22L287.39 59.06L286.35 58.66L287.39 58.42L286.43 58.02L287.39 57.86L286.43 57.46L287.39 57.3L286.43 56.9L287.39 56.74L286.43 56.34L287.39 56.18L286.51 55.78L287.47 55.62L286.51 55.22L287.47 55.06L286.51 54.66L287.47 54.5L286.59 54.1L287.47 53.94L286.59 53.54L287.47 53.38L286.59 52.98L287.55 52.82L286.67 52.42L287.55 52.26L286.67 51.86L287.63 51.7L286.67 51.22L287.55 50.98L286.75 50.58L287.63 50.42L286.75 50.02L287.63 49.78L286.75 49.38L287.63 49.22L286.83 48.82L287.63 48.58L286.83 48.18L287.63 48.02L286.83 47.62L287.63 47.38L286.83 46.98L287.63 46.82L286.83 46.34L287.71 46.18L286.91 45.78L287.71 45.62L286.91 45.14L287.71 44.98L286.91 44.5L287.71 44.34L286.99 43.94L287.79 43.78L286.99 43.22L287.87 43.06L286.99 42.5L287.87 42.42L287.07 41.78L288.03 41.7L287.15 40.98L288.19 41.06L287.39 40.18L288.43 40.34L287.71 39.3L288.83 39.62L288.27 38.5L289.31 38.98L288.91 37.78L289.79 38.5L289.71 37.22L290.43 38.02V36.82L290.99 37.7L291.15 36.58L291.63 37.46L291.87 36.42L292.27 37.3L292.59 36.26L292.91 37.22L293.31 36.26L293.55 37.14L293.95 36.26L294.19 37.06L294.59 36.34L294.75 37.14L295.15 36.42L295.31 37.14L295.71 36.5L295.95 37.22L296.35 36.58L296.59 37.22L296.99 36.66L297.15 37.3L297.63 36.74L297.79 37.38L298.27 36.82L298.43 37.38L298.91 36.9L299.07 37.46L299.55 36.98L299.63 37.62L300.19 37.14L300.27 37.7L300.83 37.3L300.91 37.86L301.47 37.54L301.55 38.1L302.19 37.86V38.34L302.83 38.18L302.75 38.66L303.39 38.5L303.31 38.98L303.95 38.9L303.79 39.38L304.43 39.3L304.27 39.7H304.99L304.75 40.18L305.47 40.1L305.23 40.58H305.95L305.63 41.06H306.35L306.03 41.54H306.83L306.43 42.02H307.23L306.83 42.5H307.63L307.23 42.9H307.95L307.55 43.38L308.35 43.3L307.87 43.86L308.75 43.78L308.27 44.34L309.15 44.26L308.67 44.82H309.47L308.99 45.3H309.79L309.31 45.86H310.11L309.55 46.34H310.35L309.87 46.82L310.59 46.9L310.11 47.38H310.91L310.35 47.86H311.15L310.67 48.34L311.47 48.42L310.91 48.82L311.71 48.9L311.23 49.3L312.03 49.38L311.55 49.78L312.35 49.86L311.79 50.26H312.67L312.11 50.74H312.99L312.43 51.22L313.39 51.14L312.75 51.62L313.71 51.54L313.07 52.1L314.03 51.94L313.47 52.5L314.43 52.34L313.79 52.9L314.75 52.66L314.19 53.22L315.07 52.98L314.27 53.86L315.55 53.46L314.59 54.42L316.03 54.18L315.23 54.82L316.35 54.66L315.55 55.3L316.67 55.14L315.87 55.78L316.91 55.54L316.19 56.18L317.15 55.94L316.51 56.58L317.39 56.26L316.83 56.9L317.63 56.58L317.23 57.22L317.87 56.9L317.47 57.62L318.11 57.22H318.03H318.11L318.19 57.14L318.11 57.22L318.35 57.3L318.43 57.22V57.3H318.51L318.11 56.98H318.75L318.19 56.58H318.91L318.19 56.18L318.91 56.1L318.11 55.7L318.99 55.62L318.03 55.22L318.99 55.06L317.95 54.66L318.91 54.42L317.79 54.02L318.91 53.86L317.71 53.38L318.75 53.22L317.55 52.82L318.67 52.66L317.39 52.18L318.59 52.02L317.31 51.62L318.51 51.46L317.15 51.06L318.43 50.9L317.07 50.5L318.43 50.34L316.91 49.86L318.35 49.7L316.83 49.3L318.27 49.14L316.75 48.74L318.27 48.58L316.75 48.18L318.27 48.02L316.67 47.54L318.19 47.38L316.67 46.98L318.19 46.82L316.59 46.42L318.19 46.26L316.59 45.86L318.19 45.7L316.59 45.22L318.11 45.06L316.51 44.66L318.11 44.5L316.51 44.1L318.27 43.86L316.43 43.38L318.35 43.22L316.43 42.66L318.43 42.5L316.51 41.86L318.59 41.78L316.59 40.9L318.75 41.06L316.75 39.94L318.91 40.26L317.07 39.06L319.87 39.7L317.95 37.14L320.43 38.66L319.55 35.86L321.31 37.86L320.99 34.98L322.27 37.38L322.75 34.74L323.23 36.58L323.63 34.66L324.03 36.5L324.51 34.74L324.83 36.5L325.31 34.82L325.55 36.34L325.95 34.98L326.19 36.42L326.59 35.06L326.75 36.42L327.15 35.22L327.39 36.5L327.79 35.38L327.95 36.66L328.43 35.54L328.59 36.74L329.07 35.7L329.23 36.82L329.71 35.86L329.95 36.9L330.43 35.94L330.59 37.06L331.15 36.18L331.31 37.14L331.87 36.34L331.95 37.3L332.59 36.58V37.46L333.31 36.82V37.7L334.11 37.14L334.03 38.02L334.83 37.62L334.67 38.34L335.39 38.02L335.23 38.66L335.95 38.42L335.71 39.06L336.35 38.98L335.95 39.3L336.35 39.38L336.51 39.3L336.43 39.38H336.51L336.03 39.7L336.83 39.94L336.27 40.34L337.15 40.66L336.51 41.06L337.39 41.46L336.75 41.7L337.55 42.18L336.83 42.42L337.71 42.82L336.99 43.06L337.79 43.54L337.07 43.7L337.87 44.1L337.07 44.26L337.95 44.74L337.15 44.9L338.03 45.3L337.15 45.46L338.19 45.94L337.23 46.1L338.27 46.58L337.31 46.74L338.35 47.14L337.31 47.3L338.43 47.78L337.39 47.94L338.51 48.34L337.47 48.5L338.59 48.98L337.47 49.14L338.67 49.54L337.47 49.7L338.67 50.18L337.55 50.34L338.75 50.74L337.55 50.9L338.83 51.38L337.63 51.54L338.83 51.94L337.63 52.18L338.91 52.58L337.63 52.74L338.91 53.14L337.63 53.38L338.91 53.78L337.71 53.94L338.91 54.34L337.71 54.5L338.91 54.9L337.71 55.06L338.91 55.46L337.63 55.62L338.91 56.02L337.63 56.26L338.83 56.58L337.63 56.82L338.83 57.22L337.63 57.38L338.75 57.78L337.55 57.94L338.75 58.34L337.55 58.5L338.67 58.9L337.55 59.06L338.59 59.46L337.47 59.62L338.51 60.02L337.47 60.18L338.51 60.58L337.39 60.74L338.43 61.14L337.39 61.3L338.35 61.7L337.31 61.86L338.27 62.26L337.31 62.42L338.19 62.82L337.23 62.98L338.19 63.38L337.23 63.54L338.11 63.94L337.15 64.1L338.03 64.5L337.15 64.66L338.03 65.06L337.15 65.22L337.95 65.62L337.07 65.78L337.95 66.18L337.07 66.34L337.87 66.74L337.07 66.98L337.87 67.3L337.07 67.54L337.87 67.94L337.07 68.1L337.87 68.5L337.07 68.66L337.87 69.06L337.07 69.22L337.95 69.62L337.15 69.78L337.95 70.18L337.15 70.34L338.03 70.74L337.15 70.9L338.11 71.3L337.23 71.46L338.19 71.86L337.31 72.02L338.27 72.42L337.31 72.58L338.35 72.98L337.39 73.14L338.43 73.54L337.47 73.7L338.59 74.1L337.55 74.26L338.75 74.66L337.63 74.82L338.83 75.22L337.71 75.38L338.99 75.78L337.79 75.94L339.15 76.34L337.87 76.5L339.31 76.9L337.95 77.06L339.47 77.46L338.11 77.62L339.63 78.02L338.11 78.26L339.79 78.66L338.27 78.82L339.95 79.22L338.35 79.38L340.11 79.78L338.43 79.94L340.27 80.34L338.51 80.58L340.43 80.98L338.59 81.14L340.59 81.54L338.67 81.7L340.67 82.1L338.75 82.26L340.83 82.74L338.75 82.9L340.91 83.3L338.83 83.46L340.99 83.94L338.83 84.02L340.99 84.5L338.83 84.66L341.07 85.14L338.83 85.22L341.07 85.78L338.75 85.86L341.07 86.42L338.43 86.5L340.99 87.22H338.11L340.83 88.18L337.71 87.94L340.59 89.38L336.91 88.66L339.71 91.38L336.59 89.7L338.59 92.66L335.55 90.58L337.07 94.1L334.83 91.22L335.23 94.9L334.03 92.5L334.27 95.14L333.31 92.66V95.3L332.59 92.9L332.43 95.38L331.87 93.06L331.63 95.38L331.23 93.14L330.83 95.38L330.59 93.22L330.11 95.3L329.95 93.3L329.47 95.22L329.31 93.38L328.91 95.14L328.75 93.22L328.27 95.06L328.11 93.22L327.71 94.98L327.47 93.14L327.07 94.9L326.83 93.06L326.35 94.82L326.19 92.98L325.63 94.74L325.55 92.82L324.91 94.66V92.74L324.19 94.5V92.58L323.39 94.34L323.55 92.34L322.51 94.1L322.83 92.18L321.71 93.78L322.19 91.86L320.83 93.46L321.47 91.46L319.95 92.98L320.83 91.14L319.23 92.42L320.19 90.74L318.59 91.86L319.63 90.34L317.95 91.3L319.07 89.86L317.47 90.66L318.59 89.38L316.99 90.1L318.19 88.9L316.59 89.54L317.71 88.42L316.19 88.98L317.39 87.94L315.87 88.42L316.99 87.46L315.47 87.94L316.51 87.06L315.23 87.54L316.35 86.5L314.83 86.98L315.95 85.94L314.43 86.5L315.63 85.46L314.03 85.94L315.23 84.98L313.71 85.46L314.91 84.5L313.39 84.98L314.51 84.02L312.99 84.42L314.19 83.46L312.67 83.94L313.87 82.98L312.43 83.46L313.55 82.5L312.11 82.9L313.23 81.94L311.79 82.42L312.99 81.46L311.55 81.86L312.67 80.98L311.31 81.38L312.43 80.42L311.07 80.82L312.11 79.94L310.83 80.34L311.87 79.46L310.59 79.78L311.63 78.9L310.35 79.22L311.39 78.26L310.03 78.58L310.99 77.78L309.87 78.02L310.75 77.22L309.71 77.46L310.51 76.74L309.47 76.9L310.27 76.26L309.31 76.42L310.03 75.78L309.15 75.86L309.79 75.22L308.99 75.38L309.55 74.74L308.75 74.9L309.31 74.34L308.59 74.42L308.99 73.86L308.35 74.02L308.75 73.46L308.11 73.62L308.43 73.06L307.79 73.22L308.11 72.5L307.39 72.66L307.47 72.02L306.67 72.5V72.26L306.43 71.94L306.35 72.58L305.87 72.26V72.82L305.55 72.74L305.79 73.22H305.23L305.63 73.86L305.15 73.94L305.55 74.42L305.07 74.58L305.47 75.06L304.99 75.22L305.47 75.7L304.99 75.86L305.47 76.34L304.99 76.5L305.47 76.9L304.99 77.06L305.39 77.46L304.99 77.62L305.39 78.02L304.91 78.18L305.39 78.58L304.91 78.74L305.31 79.14L304.91 79.3L305.31 79.7L304.91 79.86L305.23 80.26L304.91 80.42L305.23 80.82L304.91 80.98L305.23 81.38L304.91 81.54L305.23 81.94L304.91 82.18L305.23 82.58L304.91 82.74L305.31 83.14L304.91 83.3L305.31 83.7L304.91 83.86L305.39 84.26L304.99 84.42L305.39 84.82L304.99 84.98L305.47 85.46L304.99 85.54L305.47 86.02L304.99 86.18L305.55 86.66L304.99 86.74L305.55 87.22L304.91 87.38L305.47 87.94H304.91L305.39 88.58H304.51L305.07 89.78L304.11 89.46L304.19 90.74L303.39 90.26L303.31 91.62L302.59 90.9L302.27 92.02L301.87 91.38L301.63 92.26L301.23 91.54L300.91 92.42L300.59 91.7L300.19 92.58L299.95 91.78L299.47 92.66L299.31 91.86L298.83 92.66L298.67 91.94L298.19 92.74L298.03 91.94L297.63 92.82L297.39 91.94L296.99 92.82L296.83 92.02L296.35 92.82L296.19 92.02L295.79 92.9L295.63 92.1L295.23 92.98L295.07 92.1L294.59 92.98L294.43 92.1L294.03 93.06L293.87 92.1L293.31 93.06L293.23 92.1L292.67 93.14L292.59 91.94L291.79 93.14V91.54L290.43 92.9L290.83 91.3L289.15 92.34L289.71 90.74L287.79 91.62L288.99 90.18L286.91 90.34L288.43 89.22L286.11 89.06L288.03 88.26L285.79 87.54L287.15 87.14L285.55 86.82L286.99 86.5L285.39 86.18L286.83 85.94L285.23 85.46L286.75 85.3L285.15 84.9L286.59 84.74L284.99 84.26L286.51 84.18L284.91 83.7H285.63L284.83 83.54L286.67 83.38L285.15 82.9ZM318.19 57.54L318.27 57.46L318.11 57.3L318.03 57.46L318.19 57.54ZM317.95 57.54V58.02L318.11 57.78L317.95 57.54ZM359.969 90.18L359.249 90.34V90.18L358.529 90.58L358.609 90.1L357.809 90.66L357.889 90.1L357.009 90.82L357.249 89.86L356.449 90.58L356.689 89.62L355.889 90.26L356.129 89.3L355.249 89.94L355.569 89.06L354.689 89.62L355.009 88.74L354.129 89.3L354.529 88.26L353.329 88.82L353.969 87.78L352.689 88.18L353.329 87.3L352.289 87.62L352.929 86.9L351.809 87.14L352.529 86.42L351.409 86.66L352.129 85.94L351.089 86.18L351.809 85.46L350.689 85.7L351.409 84.98L350.369 85.14L351.089 84.5L349.969 84.66L350.769 84.02L349.649 84.18L350.449 83.46L349.329 83.7L350.129 82.98L349.009 83.14L349.809 82.5L348.689 82.66L349.489 82.02L348.369 82.18L349.169 81.46L348.049 81.62L348.849 80.98L347.729 81.14L348.609 80.5L347.409 80.58L348.289 79.94L347.089 80.1L347.969 79.46L346.769 79.62L347.649 78.9L346.449 79.06L347.409 78.42L346.049 78.5L347.089 77.86L345.729 77.94L346.849 77.3L345.409 77.38L346.769 76.58H345.089L346.609 75.94L344.849 75.62L346.209 75.22L344.689 74.98L346.049 74.58L344.609 74.26L345.969 74.02L344.529 73.62L345.889 73.38L344.449 73.06L345.809 72.74L344.369 72.42L345.729 72.18L344.369 71.78L345.729 71.62L344.289 71.22L345.649 70.98L344.289 70.58L345.649 70.42L344.289 70.02L345.649 69.78L344.289 69.38L345.649 69.22L344.289 68.82L345.649 68.66L344.289 68.26L345.649 68.02L344.289 67.62L345.649 67.46L344.289 67.06L345.649 66.9L344.369 66.5L345.649 66.34L344.369 65.94L345.729 65.78L344.369 65.3L345.649 65.14L344.369 64.74L345.649 64.58L344.369 64.18L345.649 64.02L344.369 63.62L345.649 63.38L344.369 62.98L345.649 62.82L344.369 62.42L345.649 62.26L344.369 61.86L345.649 61.7L344.369 61.3L345.649 61.14L344.369 60.74L345.649 60.58L344.369 60.18L345.729 60.02L344.449 59.54L345.729 59.38L344.449 58.98L345.729 58.82L344.529 58.42L345.809 58.26L344.609 57.86L345.809 57.7L344.609 57.3L345.889 57.14L344.689 56.74L345.889 56.58L344.769 56.18L345.969 55.94L344.929 55.54L346.049 55.38L345.009 54.98L346.049 54.82L345.089 54.42L346.129 54.26L345.169 53.86L346.209 53.7L345.249 53.22L346.209 53.06L345.409 52.66L346.289 52.5L345.489 52.1L346.369 51.94L345.569 51.54L346.369 51.38L345.649 50.98L346.449 50.82L345.729 50.42L346.449 50.26L345.809 49.86L346.529 49.7L345.809 49.3L346.529 49.14L345.889 48.74L346.529 48.58L345.889 48.18L346.529 47.94L345.889 47.54L346.529 47.38L345.889 46.98L346.529 46.82L345.889 46.42L346.529 46.26L345.889 45.86L346.529 45.7L345.809 45.3L346.449 45.14L345.729 44.74L346.449 44.58L345.729 44.1L346.449 44.02L345.649 43.54L346.369 43.38L345.569 42.98L346.449 42.82L345.569 42.34L346.449 42.18L345.489 41.62L346.529 41.54L345.489 40.9H346.689L345.649 40.02L347.009 40.18L346.049 38.82L347.409 39.46L346.849 37.7L348.209 38.58L347.809 36.66L348.929 38.02L349.089 36.02L349.729 37.22L349.809 35.62L350.369 36.9L350.609 35.3L351.009 36.66L351.329 34.98L351.649 36.42L352.049 34.74L352.289 36.26L352.689 34.5L352.929 36.02L353.329 34.26L353.489 35.86L353.889 34.1L354.129 35.78L354.529 33.86L354.769 35.62L355.089 33.7L355.329 35.54L355.729 33.54L355.889 35.46L356.369 33.38L356.529 35.46L357.009 33.3L357.169 35.38L357.649 33.22L357.809 35.38L358.289 33.14L358.449 35.46L359.009 33.14L359.089 35.46L359.729 33.14V35.54L360.449 33.22L360.369 35.94L361.329 33.3L361.169 36.26L362.449 33.54L361.969 36.74L363.809 34.02L362.689 37.46L365.649 35.06L363.729 37.86L366.689 36.26L364.449 38.58L367.649 37.46L364.929 39.62L368.369 39.06L365.889 40.18L368.609 40.1L366.209 40.9L368.769 40.98L366.289 41.62L368.929 41.94L366.449 42.42L369.009 42.82L366.689 43.14L369.089 43.62L366.929 43.86L369.169 44.34L367.089 44.5L369.249 44.9L367.089 45.14L369.409 45.54L367.169 45.78L369.489 46.18L367.249 46.34L369.569 46.82L367.329 46.98L369.729 47.46L367.409 47.62L369.809 48.02L367.489 48.18L369.969 48.66L367.569 48.82L370.049 49.3L367.649 49.46L370.129 49.86L367.649 50.02L370.209 50.5L367.649 50.66L370.209 51.06L367.809 51.22L370.289 51.62L367.809 51.78L370.289 52.18L367.809 52.34L370.209 52.74L367.729 52.9L370.129 53.3L367.729 53.46L370.049 53.86L367.649 54.1L369.969 54.42L367.569 54.66L369.889 54.98L367.489 55.22L369.729 55.62L367.409 55.78L369.649 56.18L367.329 56.34L369.489 56.74L367.329 56.9L369.329 57.3L367.249 57.46L369.249 57.86L367.169 58.02L369.089 58.42L367.089 58.58L369.009 58.98L367.009 59.14L368.849 59.54L366.929 59.7L368.769 60.1L366.849 60.26L368.609 60.66L366.769 60.82L368.529 61.22L366.769 61.38L368.449 61.78L366.689 61.94L368.289 62.34L366.449 62.5L368.209 62.98L366.449 63.14L368.129 63.62L366.449 63.78L367.969 64.18L366.369 64.34L367.809 64.82L366.289 64.98L367.729 65.38L366.209 65.54L367.569 65.94L366.129 66.1L367.409 66.58L366.049 66.74L367.249 67.14L365.889 67.3L367.089 67.7L365.809 67.94L366.929 68.26L365.729 68.5L366.689 68.9L365.649 69.06L366.529 69.46L365.569 69.7L366.369 70.02L365.489 70.26L366.209 70.58L365.409 70.82L366.049 71.06L365.329 71.3L365.889 71.62L365.329 71.86L365.809 72.18L365.329 72.42L365.729 72.66L365.329 72.98L365.649 73.22L365.329 73.54L365.649 73.7L365.409 74.02L365.729 74.34L365.649 74.58L365.969 74.82V75.14L366.129 75.38L366.289 75.7L366.449 75.86L366.609 76.1L367.089 76.42L367.489 76.82L367.969 77.14L368.449 77.46L369.009 77.7L369.489 77.94L370.049 78.18L370.609 78.34L371.169 78.5H371.729H372.209L372.849 78.42L373.489 78.34L373.969 78.18L374.529 78.02L375.169 77.7L375.649 77.46L376.129 77.22L376.609 76.82L377.009 76.5L377.409 76.02L377.729 75.54L377.969 74.98L378.209 74.5L378.449 73.94L378.609 73.38L378.769 72.82L378.849 72.26L379.009 71.7L379.089 71.14L379.169 70.58V70.02L379.249 69.46V68.9L379.329 68.34V67.78V67.06V67.62V67.78V68.18L379.409 68.34L379.329 68.82L379.409 68.98L379.249 69.38L379.329 69.54L379.249 69.94L379.329 70.1L379.169 70.5L379.329 70.66L379.089 71.06L379.249 71.3L379.009 71.7L379.169 71.86L378.929 72.26L379.089 72.42L378.849 72.82L379.009 72.98L378.689 73.38L378.849 73.54L378.529 73.86L378.689 74.1L378.289 74.42L378.529 74.66L378.129 74.98L378.289 75.22L377.809 75.46L377.969 75.78L377.569 75.94L377.649 76.26L377.089 76.5L377.249 76.82L376.689 76.9L376.769 77.3H376.209L376.289 77.62L376.849 77.7L376.769 77.3L377.329 77.22L377.249 76.82L377.809 76.66L377.649 76.26L378.209 76.1L377.969 75.78L378.449 75.54L378.289 75.22L378.689 74.98L378.529 74.66L378.929 74.42L378.689 74.1L379.089 73.86L378.849 73.54L379.169 73.22L379.009 72.98L379.249 72.66L379.089 72.42L379.329 72.1L379.169 71.86L379.409 71.46L379.249 71.3L379.489 70.9L379.329 70.66L379.489 70.34L379.329 70.1L379.489 69.78L379.329 69.54L379.489 69.14L379.409 68.98L379.489 68.58L379.409 68.34V68.02L379.329 67.78L379.409 67.46L379.329 67.06V66.9V66.5V66.66V67.3L379.249 66.26V65.7V65.62L379.169 65.06L379.249 64.98L379.089 64.5L379.169 64.42L379.009 63.94L379.169 63.78L379.009 63.38L379.089 63.22L378.929 62.82L379.089 62.66L378.849 62.18L379.009 62.1L378.849 61.62L379.009 61.46L378.769 61.06L379.009 60.9L378.689 60.5L378.929 60.34L378.609 59.94L378.929 59.78L378.609 59.3L378.849 59.22L378.529 58.74L378.849 58.58L378.449 58.18L378.769 58.02L378.369 57.62L378.769 57.46L378.369 57.06L378.769 56.9L378.289 56.42L378.689 56.26L378.209 55.86L378.689 55.7L378.129 55.3L378.609 55.14L378.049 54.74L378.609 54.58L377.969 54.18L378.529 54.02L377.969 53.54L378.529 53.38L377.889 52.98L378.449 52.82L377.809 52.42L378.369 52.26L377.729 51.86L378.369 51.7L377.649 51.3L378.289 51.14L377.569 50.66L378.209 50.58L377.409 50.1L378.209 49.94L377.329 49.54L378.129 49.38L377.249 48.98L378.049 48.82L377.089 48.42L377.969 48.26L377.009 47.86L377.969 47.62L376.849 47.22L377.889 47.06L376.769 46.66L377.809 46.5L376.689 46.02L377.809 45.86L376.609 45.46L377.729 45.3L376.529 44.82L377.729 44.66L376.529 44.18L377.729 44.1L376.529 43.62L377.809 43.46L376.529 42.9L377.889 42.82L376.609 42.26L378.129 42.18L376.769 41.3L378.369 41.38L377.009 40.42L378.529 40.58L377.409 39.54L379.009 39.86L377.889 38.5L379.409 39.14L378.769 37.62L379.889 38.42L379.489 37.06L380.529 38.1L380.369 36.58L381.249 37.78L381.409 36.26L381.969 37.38L382.209 36.18L382.689 37.22L382.929 36.02L383.329 37.14L383.729 36.02L384.049 37.06L384.449 36.02L384.689 36.98L385.089 36.1L385.249 36.98L385.649 36.1L385.889 37.06L386.369 36.1L386.529 36.98L387.009 36.1L387.169 36.98L387.649 36.1L387.809 36.98L388.289 36.1L388.449 36.98L388.929 36.02L389.089 36.9L389.569 35.94L389.729 36.9L390.209 35.94L390.369 36.82L390.849 35.78L391.009 36.82L391.489 35.7L391.649 36.82L392.289 35.62L392.369 36.9L393.169 35.62V37.14L394.209 35.78L393.889 37.38L395.409 36.18L394.769 38.02L396.849 37.06L395.729 38.58L397.809 38.18L396.289 39.46H398.609L396.849 40.42L399.009 40.98L397.489 41.38L399.169 41.78L397.649 42.1L399.249 42.5L397.809 42.82L399.409 43.22L397.889 43.46L399.489 43.94L397.969 44.18L399.569 44.66L398.049 44.82L399.649 45.22L398.209 45.46L399.729 45.86L398.289 46.02L399.809 46.42L398.369 46.58L399.969 46.98L398.369 47.14L400.049 47.54L398.449 47.7L400.129 48.1L398.529 48.26L400.209 48.66L398.609 48.82L400.289 49.22L398.609 49.38L400.369 49.78L398.689 49.94L400.449 50.34L398.689 50.5L400.529 50.9L398.689 51.14L400.529 51.54L398.689 51.7L400.609 52.1L398.769 52.26L400.609 52.66L398.769 52.82L400.609 53.22L398.769 53.38L400.609 53.78L398.689 53.94L400.529 54.34L398.689 54.5L400.529 54.9L398.689 55.06L400.529 55.46L398.689 55.62L400.449 56.02L398.689 56.18L400.449 56.58L398.609 56.82L400.449 57.22L398.609 57.38L400.369 57.78L398.609 57.94L400.369 58.34L398.609 58.5L400.289 58.9L398.529 59.06L400.289 59.46L398.529 59.62L400.209 60.02L398.529 60.18L400.209 60.58L398.529 60.74L400.129 61.14L398.449 61.3L400.129 61.7L398.449 61.86L400.129 62.26L398.449 62.42L400.129 62.82L398.369 63.06L400.129 63.46L398.449 63.62L400.129 64.02L398.449 64.18L400.129 64.58L398.449 64.74L400.129 65.22L398.449 65.38L400.129 65.78L398.449 65.94L400.209 66.34L398.449 66.5L400.209 66.9L398.449 67.06L400.209 67.54L398.449 67.62L400.209 68.1L398.449 68.18L400.129 68.66L398.449 68.82L400.129 69.22L398.369 69.38L400.049 69.86L398.369 69.94L400.049 70.42L398.289 70.5L399.969 70.98L398.209 71.06L399.889 71.62L398.209 71.7L399.809 72.18L398.129 72.26L399.649 72.74L398.049 72.82L399.569 73.38H397.969L399.489 73.94H397.889L399.329 74.5L397.729 74.58L399.249 75.14H397.649L399.089 75.7H397.569L398.929 76.34L397.409 76.26L398.769 76.9H397.249L398.609 77.54L397.089 77.46L398.449 78.1L396.929 78.02L398.209 78.74L396.769 78.58L397.969 79.38L396.529 79.22L397.729 80.02L396.289 79.78L397.409 80.66L395.969 80.34L397.089 81.38L395.569 80.98L396.529 82.18L395.489 81.7L396.209 82.66L395.329 82.26L395.969 82.98L394.769 82.58L395.569 83.54L394.449 83.06L395.169 84.02L394.129 83.54L394.769 84.5L393.729 84.02L394.369 85.06L393.169 84.42L393.809 85.7L392.609 84.9L393.009 86.34L392.129 85.54L392.369 86.74L391.569 85.94L391.729 87.06L391.089 86.26L391.169 87.38L390.529 86.58L390.609 87.62L390.049 86.82L390.129 87.94L389.489 87.14L389.569 88.18L389.009 87.38V88.5L388.449 87.62L388.529 88.74L387.969 87.94V89.06L387.409 88.18L387.489 89.3L386.849 88.42L386.929 89.54L386.369 88.66V89.86L385.809 88.9V90.02L385.249 89.14L385.329 90.26L384.769 89.3V90.5L384.209 89.54V90.66L383.649 89.7V90.82L383.089 89.86V90.98L382.529 90.02V91.14L381.969 90.18L381.889 91.22L381.409 90.34L381.329 91.38L380.849 90.5L380.769 91.46L380.289 90.66L380.209 91.54L379.729 90.74L379.649 91.62L379.169 90.9L379.009 91.78L378.609 91.06L378.449 91.86L378.049 91.14L377.889 91.94L377.489 91.3L377.249 92.02L376.929 91.38L376.689 92.1L376.369 91.54L376.129 92.18L375.809 91.62L375.569 92.26L375.249 91.78L374.929 92.42L374.609 91.86L374.369 92.5L374.049 92.02L373.809 92.58L373.489 92.1L373.169 92.66L372.849 92.18L372.449 92.74L372.289 92.26L371.809 92.74L371.569 92.26L371.169 92.74L371.009 92.26L370.609 92.74L370.449 92.26L369.969 92.66L369.809 92.18L369.329 92.58L369.249 92.18L368.769 92.58L368.609 92.1L368.209 92.42L368.049 92.02L367.569 92.34L367.409 91.94L366.929 92.18L366.849 91.78L366.369 92.1L366.289 91.7L365.809 91.94L365.649 91.54L365.249 91.7L365.089 91.38L364.689 91.54L364.529 91.3L364.209 91.38L363.969 91.14H363.649L363.409 90.9H363.089L362.849 90.74H362.529L362.289 90.58L362.049 90.5L361.649 90.34H361.729L361.889 90.42H361.809L361.729 90.34H361.569H361.489L361.329 90.26L361.169 90.18L360.929 90.1L360.689 90.02H360.529L360.929 90.1L361.089 90.18H359.969ZM367.169 76.82H367.249L367.569 77.3L367.729 77.22L367.489 76.9L367.249 76.82L367.009 76.5L366.849 76.42L366.529 76.02L366.609 76.1L366.689 76.18L366.609 76.1L366.289 75.78L366.209 75.7L366.129 75.62L366.769 76.34L366.849 76.42L367.169 76.82ZM367.969 77.7L368.209 77.62L367.969 77.22H367.729L367.969 77.7ZM368.449 78.02L368.689 77.94L368.449 77.54L368.209 77.62L368.449 78.02ZM376.289 78.1V77.62H375.729V77.94L376.289 78.1ZM368.929 78.42L369.249 78.26L368.929 77.86L368.689 77.94L368.929 78.42ZM375.809 78.42L375.729 77.94L375.249 77.86V78.26L375.809 78.42ZM375.249 78.66V78.26L374.689 78.1L374.609 78.5L375.249 78.66ZM369.489 78.74L369.729 78.5L369.489 78.1L369.249 78.26L369.489 78.74ZM374.609 78.9V78.5L374.129 78.26L374.049 78.66L374.609 78.9ZM370.049 78.98L370.369 78.74L370.049 78.26L369.729 78.5L370.049 78.98ZM373.969 79.14L374.049 78.66L373.569 78.42L373.409 78.82L373.969 79.14ZM370.689 79.14L370.929 78.9L370.609 78.5L370.369 78.74L370.689 79.14ZM373.329 79.3L373.409 78.82L372.929 78.58L372.849 78.9L373.329 79.3ZM371.329 79.3L371.569 78.98L371.169 78.58L370.929 78.9L371.329 79.3ZM372.689 79.38L372.849 78.9L372.369 78.58L372.209 78.98L372.689 79.38ZM371.969 79.38L372.209 78.98L371.729 78.66L371.569 78.98L371.969 79.38ZM360.929 90.1H361.009L361.329 90.26L361.569 90.34L361.809 90.42L362.289 90.5L361.809 90.42L361.009 90.1L360.769 90.02L360.369 89.94L360.689 90.02L360.929 90.1ZM361.089 90.18H361.169L361.329 90.26L361.169 90.18H361.089ZM405.336 80.74L406.296 80.58L405.336 80.18L406.296 80.02L405.336 79.62L406.296 79.46L405.336 79.06L406.296 78.9L405.336 78.5L406.296 78.34L405.336 77.94L406.296 77.78L405.336 77.38L406.296 77.22L405.336 76.82L406.296 76.66L405.336 76.26L406.296 76.02L405.256 75.7L406.296 75.46L405.256 75.06L406.216 74.9L405.256 74.5L406.216 74.34L405.256 73.94L406.216 73.78L405.176 73.38L406.216 73.22L405.176 72.82L406.216 72.66L405.176 72.26L406.216 72.1L405.176 71.7L406.216 71.54L405.256 71.14L406.216 70.98L405.256 70.58L406.296 70.42L405.256 70.02L406.296 69.86L405.336 69.46L406.296 69.3L405.416 68.9L406.376 68.74L405.496 68.34L406.376 68.18L405.496 67.78L406.456 67.62L405.576 67.22L406.456 67.06L405.656 66.66L406.536 66.5L405.736 66.1L406.536 65.94L405.816 65.54L406.616 65.38L405.896 64.98L406.696 64.82L405.976 64.42L406.696 64.18L406.056 63.86L406.776 63.62L406.136 63.3L406.776 63.06L406.216 62.74L406.856 62.5L406.296 62.1L406.856 61.94L406.296 61.54L406.856 61.38L406.376 60.98L406.936 60.82L406.376 60.42L406.936 60.26L406.456 59.86L406.936 59.7L406.456 59.3L406.936 59.14L406.456 58.74L407.016 58.58L406.536 58.18L407.016 58.02L406.536 57.62L407.016 57.46L406.536 57.06L407.016 56.9L406.536 56.5L407.016 56.34L406.616 55.94L407.016 55.78L406.616 55.38L407.096 55.22L406.616 54.82L407.096 54.66L406.696 54.26L407.096 54.1L406.696 53.7L407.176 53.54L406.776 53.14L407.176 52.98L406.856 52.58L407.176 52.42L406.936 52.02L407.256 51.78L406.936 51.46L407.256 51.22L407.016 50.9L407.256 50.66L407.016 50.34L407.336 50.1L407.096 49.62L407.336 49.46L407.096 49.06L407.336 48.9L407.016 48.42L407.336 48.26L407.016 47.86L407.256 47.7L407.016 47.22L407.256 47.06L406.936 46.66L407.256 46.5L406.936 46.02L407.176 45.86L406.856 45.46L407.176 45.3L406.856 44.82L407.176 44.66L406.776 44.26L407.176 44.1L406.776 43.62L407.176 43.46L406.776 43.06L407.176 42.9L406.776 42.42L407.256 42.26L406.856 41.7L407.336 41.62L406.936 41.06L407.496 40.9L407.176 40.18L407.816 40.26L407.736 39.38L408.376 39.46V38.5L409.016 38.74L409.256 38.02L409.736 38.42L410.376 37.54L410.776 37.94L411.176 37.38L411.416 37.78L411.896 37.3L412.136 37.7L412.536 37.22L412.776 37.62L413.176 37.22L413.336 37.62L413.816 37.22L413.976 37.54L414.456 37.22L414.616 37.54L415.016 37.22L415.256 37.54L415.656 37.14L415.816 37.54L416.296 37.14L416.456 37.54L416.856 37.14L417.016 37.54L417.416 37.06L417.656 37.46L418.056 36.98L418.216 37.46L418.616 36.9L418.776 37.38L419.256 36.82L419.416 37.38L419.896 36.74L419.976 37.38L420.536 36.74L420.616 37.38L421.256 36.74V37.54L421.976 36.82L421.896 37.7L422.776 36.98L422.536 38.1L423.736 37.46L423.176 38.42L424.456 38.18L423.576 39.22L425.496 39.38L424.296 40.26L425.976 40.9L425.016 41.3L426.136 41.62L425.176 41.94L426.296 42.26L425.336 42.58L426.456 42.9L425.416 43.22L426.456 43.54L425.496 43.78L426.536 44.18L425.496 44.34L426.536 44.82L425.496 44.98L426.616 45.38L425.576 45.54L426.616 45.94L425.576 46.1L426.616 46.5L425.576 46.66L426.616 47.06L425.576 47.22L426.616 47.62L425.496 47.78L426.616 48.18L425.576 48.42L426.696 48.82L425.576 48.98L426.696 49.46L425.576 49.62L426.696 50.02L425.576 50.26L426.696 50.58V50.5L427.416 50.9L426.936 50.1L427.816 50.58L427.176 49.7L428.216 50.1L427.496 49.22L428.536 49.62L427.816 48.66L428.856 49.06L428.136 48.1L429.176 48.5L428.376 47.62L429.416 48.02L428.696 47.06L429.736 47.46L429.016 46.58L429.976 46.98L429.256 46.1L430.296 46.42L429.576 45.54L430.616 45.94L429.816 45.06L430.856 45.46L430.136 44.5L431.176 44.9L430.376 44.02L431.416 44.42L430.696 43.46L431.736 43.86L431.016 42.98L432.056 43.38L431.256 42.5L432.296 42.82L431.576 41.94L432.616 42.34L431.896 41.46L432.936 41.86L432.216 40.9L433.256 41.38L432.536 40.34L433.656 40.82L432.936 39.78L434.056 40.34L433.416 39.22L434.536 39.86L433.896 38.66L434.936 39.38L434.456 38.1L435.416 38.9L435.096 37.62L435.976 38.5L435.736 37.22L436.536 38.1L436.376 36.82L437.176 37.78V36.42L437.816 37.54L438.056 36.18L438.536 37.3L438.856 36.02L439.256 37.14L439.576 35.94L439.896 36.98L440.216 35.86L440.536 36.9L440.856 35.78L441.176 36.9L441.576 35.78L441.736 36.82L442.136 35.78L442.376 36.82L442.776 35.78L442.936 36.74L443.336 35.78L443.496 36.74L443.976 35.78L444.136 36.74L444.536 35.86L444.696 36.74L445.096 35.86L445.256 36.74L445.656 35.86L445.816 36.82L446.216 35.86L446.376 36.82L446.776 35.86L446.936 36.82L447.416 35.86L447.576 36.82L447.976 35.86L448.136 36.82L448.616 35.86L448.776 36.82L449.256 35.86L449.416 36.9L449.896 35.86L449.976 36.9L450.456 35.94L450.616 36.9L451.096 35.94L451.256 37.06L451.896 36.02V37.14L452.696 36.26L452.536 37.38L453.496 36.5L453.256 37.62L454.216 36.82L453.816 38.42L455.336 38.02L454.616 38.42H454.936L455.496 38.26L455.256 38.42H455.496L454.696 38.9L455.816 38.98L454.456 39.78L456.136 40.42L454.616 40.66L455.896 41.78L454.696 41.7L455.656 42.58L454.536 42.34L455.416 43.3L454.296 42.98L455.096 43.94L454.056 43.62L454.776 44.58L453.736 44.18L454.456 45.14L453.496 44.74L454.216 45.7L453.176 45.3L453.896 46.26L452.696 45.78L453.496 46.9L452.376 46.34L453.016 47.54L452.216 47.06L452.776 47.86L451.896 47.46L452.456 48.26L451.576 47.86L452.216 48.74L451.256 48.34L451.896 49.14L450.936 48.82L451.656 49.62L450.696 49.3L451.336 50.1L450.376 49.78L451.096 50.58L450.136 50.26L450.856 51.14L449.816 50.82L450.536 51.62L449.576 51.3L450.296 52.1L449.336 51.78L449.976 52.66L449.016 52.34L449.736 53.14L448.776 52.82L449.416 53.7L448.456 53.38L449.176 54.26L448.216 53.94L448.856 54.74L447.896 54.42L448.616 55.3L447.576 54.98L448.296 55.86L447.256 55.46L447.976 56.5L446.936 56.02L447.656 57.06L446.536 56.5L447.256 57.7L446.456 57.22L447.016 58.1L446.216 57.7L446.856 58.5L445.816 58.02L446.616 59.06L445.576 58.58L446.456 59.54L445.416 59.14L446.216 60.1L445.176 59.62L446.056 60.58L445.016 60.1L445.976 61.06L444.936 60.66L445.896 61.54L444.856 61.14L445.816 61.94L444.776 61.62L445.736 62.34L444.856 62.1L445.736 62.66L444.936 62.5L445.816 62.9L445.256 62.82L445.896 63.06H445.256L445.976 63.22H445.656L446.056 63.3L445.336 63.46H446.136L445.256 63.78L446.296 63.7L445.176 64.1L446.456 63.94L445.256 64.5L446.616 64.26L445.336 64.98L446.856 64.58L445.496 65.38L447.016 64.98L445.656 65.86L447.256 65.38L445.896 66.34L447.576 65.78L446.136 66.82L447.816 66.26L446.296 67.3L448.056 66.74L446.536 67.86L448.376 67.22L447.816 67.62L448.376 67.38L447.256 68.42L448.696 67.7L447.016 69.38L449.176 68.42L447.496 69.86L449.576 69.06L447.896 70.42L449.896 69.7L448.296 70.9L450.136 70.34L448.616 71.46L450.376 70.98L448.856 72.02L450.616 71.54L449.176 72.58L450.856 72.18L449.416 73.14L451.096 72.74L449.656 73.62L451.256 73.3L449.896 74.18L451.416 73.86L450.136 74.74L451.656 74.42L450.296 75.3L451.816 74.98L450.536 75.78L451.976 75.54L450.776 76.34L452.136 76.1L450.936 76.82L452.296 76.58L451.176 77.38L452.536 77.14L451.416 77.86L452.696 77.62L451.656 78.42L452.856 78.18L451.896 78.9L453.096 78.66L452.136 79.38L453.336 79.06L452.456 79.78L453.576 79.54L452.776 80.18L453.736 79.86L453.096 80.58L453.976 80.18L453.016 81.22L454.456 80.82L453.336 81.86L454.936 81.54L453.976 82.34L455.256 82.1L454.296 82.9L455.576 82.58L454.616 83.38L455.896 83.14L454.936 83.94L456.216 83.7L455.256 84.42L456.536 84.18L455.496 84.98L456.856 84.82L455.576 85.7L457.336 85.62L456.056 86.42H457.656L456.056 87.38L458.136 87.7L456.216 88.26L458.056 89.22H456.616L457.336 89.7L457.976 89.86H457.656L457.896 90.02L457.256 89.94L457.896 90.26H455.496L456.536 92.42L455.656 91.3L455.976 92.74L454.696 91.14L454.536 93.54L453.576 91.7L452.936 93.86L452.616 92.34L452.136 93.86L451.896 92.66L451.496 93.94L451.256 92.58L450.856 93.94L450.696 92.66L450.216 93.94L450.056 92.66L449.656 93.94L449.496 92.66L449.096 93.94L448.936 92.74L448.536 93.94L448.376 92.58L447.896 93.94L447.736 92.58L447.336 93.86L447.096 92.58L446.696 93.86L446.536 92.58L446.056 93.86L445.896 92.58L445.496 93.86L445.256 92.5L444.856 93.78L444.696 92.5L444.216 93.78L444.056 92.5L443.576 93.7L443.416 92.42L443.016 93.62L442.856 92.34L442.376 93.54L442.136 92.34L441.736 93.46L441.496 92.26L441.016 93.38L440.856 92.1L440.296 93.22L440.216 92.02L439.576 93.06V91.78L438.776 92.74L438.856 91.54L437.976 92.42L438.216 91.3L437.256 92.02L437.576 90.9L436.536 91.46L436.936 90.58L435.976 90.9L436.456 90.1L435.576 90.34L436.056 89.62L435.176 89.78L435.656 89.14L434.856 89.22L435.336 88.66H434.536L435.016 88.1H434.296L434.696 87.62L434.056 87.54L434.456 87.06L433.816 86.98L434.216 86.58L433.656 86.42L433.976 86.02L433.416 85.86L433.656 85.46L433.176 85.3L433.416 84.9L432.936 84.74L433.176 84.34L432.696 84.18L432.936 83.86L432.456 83.62L432.616 83.3L432.216 83.06L432.376 82.82L431.896 82.58L432.136 82.26L431.656 82.02L431.816 81.78L431.416 81.54L431.576 81.22L431.096 80.98L431.256 80.74L430.856 80.5L431.016 80.18L430.536 79.94L430.696 79.7L430.216 79.46L430.376 79.22L429.976 78.98L430.136 78.74L429.656 78.5L429.816 78.18L429.256 77.94L429.496 77.62L428.936 77.38L429.176 77.14L428.616 76.9L428.856 76.58L428.296 76.42L428.536 76.1L427.976 76.02L428.136 75.7L427.656 75.62L427.736 75.3H427.256L427.336 74.98L426.856 75.06V74.66L426.296 74.82V74.74L426.136 75.06L425.816 74.66L425.576 75.22L425.496 75.14L425.576 75.46H425.016L425.256 76.26H424.856L425.176 76.74L424.696 76.9L425.176 77.38L424.696 77.54L425.256 78.1L424.696 78.26L425.256 78.74L424.776 78.9L425.256 79.3L424.776 79.46L425.336 79.86L424.856 80.02L425.336 80.42L424.856 80.58L425.416 80.98L424.856 81.14L425.416 81.54L424.936 81.7L425.496 82.18L424.936 82.34L425.576 82.74L424.936 82.9L425.576 83.3L425.016 83.46L425.656 83.94L425.016 84.1L425.736 84.5L425.096 84.66L425.816 85.14L425.096 85.22L425.816 85.7L425.096 85.86L425.896 86.34L425.096 86.5L425.896 87.06H424.856L425.896 87.94L424.776 87.86L425.736 88.82L424.616 88.66L425.496 89.7L424.056 89.38L424.936 91.06L423.496 90.18L423.736 92.1L422.616 90.98L422.696 92.82L421.816 91.46L421.336 93.22L420.936 92.1L420.616 93.46L420.296 92.18L419.896 93.54L419.656 92.34L419.256 93.7L419.016 92.42L418.616 93.7L418.376 92.42L417.896 93.78L417.736 92.5L417.336 93.86L417.096 92.58L416.696 93.86L416.536 92.58L416.056 93.94L415.896 92.58L415.416 93.94L415.256 92.66L414.856 93.94L414.696 92.66L414.216 93.94L414.056 92.58L413.576 93.94L413.416 92.58L412.936 93.94L412.776 92.5L412.136 93.94L412.056 92.34L411.256 93.94L411.336 92.34L410.536 93.78L410.616 92.18L409.736 93.62L409.976 91.54L408.216 93.14L409.096 91.14L407.016 92.18L408.056 90.42L405.896 91.22L407.496 89.7L405.256 89.86L406.696 89.06H405.016L406.616 88.34L404.776 88.1L406.376 87.62L404.616 87.22L406.136 86.82L404.616 86.42L406.056 86.18L404.616 85.78L405.976 85.54L404.696 85.14L406.056 84.98L404.776 84.5L406.056 84.34L404.856 83.94L406.056 83.7L404.936 83.3L406.136 83.14L405.016 82.74L406.216 82.58L405.176 82.18L406.216 81.94L405.256 81.54L405.816 81.46L405.336 81.38L406.376 81.14L405.336 80.74ZM426.776 50.98L427.096 51.22L426.696 50.58L425.896 50.82L426.456 50.9L426.376 50.74L426.696 50.98H426.776ZM426.536 51.46H426.696L426.536 51.14H426.456V51.22V51.38L426.536 51.46ZM425.976 51.54L426.056 51.46L425.976 51.54ZM461.644 78.42L463.004 78.26L461.644 77.86L463.004 77.7L461.724 77.3L463.004 77.14L461.724 76.74L463.004 76.58L461.724 76.18L463.004 76.02L461.724 75.62L463.004 75.46L461.644 74.98L462.924 74.82L461.564 74.42L462.924 74.26L461.564 73.86L462.924 73.7L461.484 73.3L462.844 73.14L461.484 72.74L462.844 72.58L461.404 72.18L462.844 72.02L461.404 71.62L462.844 71.46L461.404 71.06L462.844 70.82L461.324 70.42L462.764 70.26L461.324 69.86L462.764 69.7L461.244 69.3L462.764 69.14L461.244 68.74L462.764 68.58L461.244 68.18L462.684 68.02L461.164 67.62L462.684 67.46L461.164 67.06L462.684 66.9L461.164 66.5L462.684 66.26L461.164 65.86L462.684 65.7L461.244 65.3L462.764 65.14L461.244 64.74L462.764 64.58L461.324 64.18L462.844 64.02L461.404 63.62L462.844 63.46L461.484 63.06L462.924 62.9L461.564 62.5L463.004 62.26L461.644 61.86L463.084 61.7L461.804 61.3L463.084 61.14L461.884 60.74L463.164 60.58L462.044 60.18L463.244 60.02L462.204 59.62L463.324 59.46L462.284 59.06L463.404 58.9L462.444 58.5L463.484 58.34L462.604 57.94L463.564 57.7L462.684 57.3L463.644 57.14L462.844 56.74L463.724 56.58L462.924 56.18L463.804 56.02L463.084 55.62L463.884 55.46L463.164 55.06L463.884 54.9L463.324 54.5L463.964 54.34L463.404 53.94L464.044 53.7L463.484 53.38L464.044 53.14L463.484 52.74L464.044 52.58L463.564 52.18L464.124 52.02L463.564 51.62L464.124 51.46L463.564 50.98L464.124 50.82L463.564 50.42L464.044 50.26L463.484 49.86L464.044 49.7L463.484 49.3L464.044 49.14L463.404 48.74L463.964 48.58L463.404 48.18L463.964 48.02L463.324 47.62L463.964 47.46L463.244 47.06L463.884 46.9L463.244 46.5L463.884 46.34L463.164 45.86L463.804 45.7L463.084 45.3L463.804 45.14L463.084 44.74L463.804 44.58L463.004 44.18L463.804 44.02L463.004 43.46L463.804 43.3L462.924 42.82L463.884 42.66L462.924 42.1L463.884 42.02L463.004 41.3H463.964L463.084 40.58H464.364L463.324 39.38L464.684 39.7L463.964 38.34L465.084 38.9L464.684 37.54L465.644 38.34L465.404 36.98L466.284 37.86V36.5L466.924 37.54L467.084 36.18L467.644 37.3L467.884 36.02L468.284 37.06L468.684 35.86L469.004 36.9L469.404 35.78L469.644 36.82L469.964 35.78L470.204 36.74L470.604 35.7L470.844 36.74L471.244 35.7L471.404 36.74L471.804 35.7L471.964 36.66L472.364 35.7L472.524 36.66L473.004 35.7L473.164 36.66L473.564 35.7L473.724 36.66L474.124 35.7L474.284 36.66L474.684 35.7L474.844 36.66L475.244 35.7L475.404 36.66L475.804 35.7L475.964 36.74L476.444 35.7L476.604 36.9L477.164 35.7L477.324 36.9L477.964 35.78L478.124 36.98L478.844 35.86V37.06L479.644 36.02L479.564 37.46L480.844 36.26L480.524 37.86L482.044 36.98L481.404 38.26L482.924 37.7L481.964 38.82L483.564 38.58L482.524 39.54L484.124 39.46L482.924 40.26L484.444 40.42L483.244 40.98L484.684 41.3L483.484 41.7L484.844 42.1L483.644 42.42L485.004 42.82L483.724 43.06L485.004 43.54L483.804 43.7L485.084 44.18L483.884 44.34L485.164 44.74L483.964 44.9L485.244 45.38L483.964 45.54L485.324 46.02L484.044 46.18L485.404 46.58L484.124 46.74L485.484 47.22L484.124 47.38L485.564 47.78L484.204 47.94L485.644 48.42L484.204 48.58L485.724 48.98L484.284 49.14L485.804 49.62L484.284 49.78L485.884 50.18L484.364 50.34L485.964 50.82L484.364 50.98L485.964 51.38L484.444 51.54L486.044 52.02L484.444 52.18L486.124 52.58L484.444 52.74L486.204 53.22L484.604 53.38L486.284 53.78L484.604 53.94L486.284 54.34L484.684 54.5L486.364 54.9L484.684 55.06L486.364 55.46L484.684 55.62L486.364 56.1L484.684 56.26L486.444 56.66L484.684 56.82L486.444 57.22L484.684 57.38L486.364 57.78L484.684 57.94L486.364 58.34L484.604 58.5L486.284 58.9L484.604 59.06L486.284 59.46L484.604 59.62L486.204 60.02L484.524 60.18L486.124 60.58L484.444 60.82L486.044 61.22L484.444 61.38L485.884 61.78L484.364 61.94L485.804 62.34L484.284 62.5L485.724 62.9L484.284 63.06L485.644 63.46L484.204 63.62L485.484 64.02L484.124 64.18L485.404 64.58L484.044 64.74L485.324 65.14L483.964 65.38L485.164 65.7L483.964 65.94L485.084 66.34L483.884 66.5L484.924 66.9L483.804 67.06L484.844 67.46L483.724 67.62L484.764 68.02L483.644 68.18L484.684 68.58L483.644 68.74L484.524 69.14L483.564 69.3L484.444 69.7L483.564 69.86L484.364 70.26L483.484 70.5L484.284 70.9L483.484 71.06L484.284 71.46L483.404 71.62L484.204 72.02L483.404 72.18L484.204 72.58L483.404 72.74L484.124 73.14L483.404 73.3L484.124 73.7L483.324 73.86L484.124 74.26L483.324 74.42L484.124 74.82L483.324 74.98L484.124 75.38L483.324 75.62L484.124 76.02L483.324 76.18L484.124 76.66L483.324 76.82L484.124 77.22L483.324 77.38L484.124 77.78L483.404 77.94L484.204 78.42L483.404 78.58L484.204 78.98L483.404 79.14L484.204 79.54L483.404 79.7L484.284 80.18L483.484 80.34L484.284 80.74L483.484 80.9L484.364 81.3L483.564 81.54L484.444 81.94L483.564 82.1L484.524 82.5L483.644 82.66L484.604 83.14L483.644 83.3L484.684 83.7L483.724 83.86L484.764 84.26L483.644 84.5L484.844 84.98L483.724 85.14L484.924 85.62L483.644 85.78L484.924 86.34L483.644 86.42L484.924 87.06H483.564L484.844 87.86L483.404 87.78L484.684 88.58L482.844 88.42L484.204 90.02L482.444 89.46L483.404 91.14L481.884 90.18L482.364 92.18L481.004 90.98L481.164 92.82L480.364 91.62L480.284 93.06L479.724 91.86L479.564 93.22L479.004 91.94L478.684 93.3L478.284 92.1L477.964 93.38L477.644 92.18L477.164 93.3L477.004 92.18L476.524 93.3L476.284 92.18L475.884 93.22L475.644 92.18L475.244 93.14L475.084 92.18L474.604 93.06L474.444 92.1L474.044 92.98L473.884 92.1L473.484 92.98L473.244 92.1L472.924 92.98L472.684 92.1L472.284 92.98L472.124 92.1L471.724 92.98L471.484 92.1L471.084 92.98L470.924 92.1L470.444 92.98L470.284 92.1L469.804 92.98L469.644 92.02L469.084 92.98L469.004 92.02L468.364 92.9V91.86L467.644 92.82V91.7L466.844 92.66L467.004 91.3L465.644 92.18L466.284 90.82L464.604 91.3L465.244 90.18L463.804 90.58L464.764 89.54H463.164L464.284 88.82L462.844 88.66L463.964 88.18L462.684 87.86L463.724 87.54L462.524 87.22L463.644 86.9L462.444 86.58L463.564 86.26L462.364 85.86L463.484 85.62L462.284 85.22L463.404 84.98L462.284 84.58L463.324 84.42L462.204 83.94L463.324 83.78L462.204 83.38L463.244 83.22L462.124 82.74L463.244 82.58L462.044 82.18L463.164 82.02L461.964 81.54L463.164 81.38L461.964 80.98L463.084 80.82L461.884 80.42L463.084 80.26L461.804 79.86L463.004 79.7L461.724 79.3L462.284 79.22L461.644 79.06L463.084 78.9L461.644 78.42Z" fill="white"/>
</g>
<defs>
<filter id="filter0_d_1494_363784" x="14" y="-10" width="150" height="150" filterUnits="userSpaceOnUse" color-interpolation-filters="sRGB">
<feFlood flood-opacity="0" result="BackgroundImageFix"/>
<feColorMatrix in="SourceAlpha" type="matrix" values="0 0 0 0 0 0 0 0 0 0 0 0 0 0 0 0 0 0 127 0" result="hardAlpha"/>
<feOffset/>
<feGaussianBlur stdDeviation="5"/>
<feComposite in2="hardAlpha" operator="out"/>
<feColorMatrix type="matrix" values="0 0 0 0 0.079348 0 0 0 0 0.181944 0 0 0 0 0.178213 0 0 0 0.75 0"/>
<feBlend mode="normal" in2="BackgroundImageFix" result="effect1_dropShadow_1494_363784"/>
<feBlend mode="normal" in="SourceGraphic" in2="effect1_dropShadow_1494_363784" result="shape"/>
</filter>
<filter id="filter1_d_1494_363784" x="28.9429" y="16.3906" width="39.4786" height="41.3516" filterUnits="userSpaceOnUse" color-interpolation-filters="sRGB">
<feFlood flood-opacity="0" result="BackgroundImageFix"/>
<feColorMatrix in="SourceAlpha" type="matrix" values="0 0 0 0 0 0 0 0 0 0 0 0 0 0 0 0 0 0 127 0" result="hardAlpha"/>
<feOffset/>
<feGaussianBlur stdDeviation="2"/>
<feComposite in2="hardAlpha" operator="out"/>
<feColorMatrix type="matrix" values="0 0 0 0 0.079348 0 0 0 0 0.181944 0 0 0 0 0.178213 0 0 0 0.75 0"/>
<feBlend mode="normal" in2="BackgroundImageFix" result="effect1_dropShadow_1494_363784"/>
<feBlend mode="normal" in="SourceGraphic" in2="effect1_dropShadow_1494_363784" result="shape"/>
</filter>
<filter id="filter2_d_1494_363784" x="109.581" y="16.3906" width="39.4786" height="41.3516" filterUnits="userSpaceOnUse" color-interpolation-filters="sRGB">
<feFlood flood-opacity="0" result="BackgroundImageFix"/>
<feColorMatrix in="SourceAlpha" type="matrix" values="0 0 0 0 0 0 0 0 0 0 0 0 0 0 0 0 0 0 127 0" result="hardAlpha"/>
<feOffset/>
<feGaussianBlur stdDeviation="2"/>
<feComposite in2="hardAlpha" operator="out"/>
<feColorMatrix type="matrix" values="0 0 0 0 0.079348 0 0 0 0 0.181944 0 0 0 0 0.178213 0 0 0 0.75 0"/>
<feBlend mode="normal" in2="BackgroundImageFix" result="effect1_dropShadow_1494_363784"/>
<feBlend mode="normal" in="SourceGraphic" in2="effect1_dropShadow_1494_363784" result="shape"/>
</filter>
<filter id="filter3_d_1494_363784" x="30.1886" y="23.3789" width="117.623" height="88.1289" filterUnits="userSpaceOnUse" color-interpolation-filters="sRGB">
<feFlood flood-opacity="0" result="BackgroundImageFix"/>
<feColorMatrix in="SourceAlpha" type="matrix" values="0 0 0 0 0 0 0 0 0 0 0 0 0 0 0 0 0 0 127 0" result="hardAlpha"/>
<feOffset/>
<feGaussianBlur stdDeviation="2"/>
<feComposite in2="hardAlpha" operator="out"/>
<feColorMatrix type="matrix" values="0 0 0 0 0.079348 0 0 0 0 0.181944 0 0 0 0 0.178213 0 0 0 0.75 0"/>
<feBlend mode="normal" in2="BackgroundImageFix" result="effect1_dropShadow_1494_363784"/>
<feBlend mode="normal" in="SourceGraphic" in2="effect1_dropShadow_1494_363784" result="shape"/>
</filter>
<filter id="filter4_d_1494_363784" x="76.7254" y="76.8594" width="24.5492" height="21.0117" filterUnits="userSpaceOnUse" color-interpolation-filters="sRGB">
<feFlood flood-opacity="0" result="BackgroundImageFix"/>
<feColorMatrix in="SourceAlpha" type="matrix" values="0 0 0 0 0 0 0 0 0 0 0 0 0 0 0 0 0 0 127 0" result="hardAlpha"/>
<feOffset/>
<feGaussianBlur stdDeviation="2"/>
<feComposite in2="hardAlpha" operator="out"/>
<feColorMatrix type="matrix" values="0 0 0 0 0.079348 0 0 0 0 0.181944 0 0 0 0 0.178213 0 0 0 0.75 0"/>
<feBlend mode="normal" in2="BackgroundImageFix" result="effect1_dropShadow_1494_363784"/>
<feBlend mode="normal" in="SourceGraphic" in2="effect1_dropShadow_1494_363784" result="shape"/>
</filter>
<filter id="filter5_d_1494_363784" x="67.8496" y="57.3594" width="16.0625" height="16.0625" filterUnits="userSpaceOnUse" color-interpolation-filters="sRGB">
<feFlood flood-opacity="0" result="BackgroundImageFix"/>
<feColorMatrix in="SourceAlpha" type="matrix" values="0 0 0 0 0 0 0 0 0 0 0 0 0 0 0 0 0 0 127 0" result="hardAlpha"/>
<feOffset/>
<feGaussianBlur stdDeviation="2"/>
<feComposite in2="hardAlpha" operator="out"/>
<feColorMatrix type="matrix" values="0 0 0 0 0.079348 0 0 0 0 0.181944 0 0 0 0 0.178213 0 0 0 0.75 0"/>
<feBlend mode="normal" in2="BackgroundImageFix" result="effect1_dropShadow_1494_363784"/>
<feBlend mode="normal" in="SourceGraphic" in2="effect1_dropShadow_1494_363784" result="shape"/>
</filter>
<filter id="filter6_d_1494_363784" x="94.0879" y="57.3594" width="16.0625" height="16.0625" filterUnits="userSpaceOnUse" color-interpolation-filters="sRGB">
<feFlood flood-opacity="0" result="BackgroundImageFix"/>
<feColorMatrix in="SourceAlpha" type="matrix" values="0 0 0 0 0 0 0 0 0 0 0 0 0 0 0 0 0 0 127 0" result="hardAlpha"/>
<feOffset/>
<feGaussianBlur stdDeviation="2"/>
<feComposite in2="hardAlpha" operator="out"/>
<feColorMatrix type="matrix" values="0 0 0 0 0.079348 0 0 0 0 0.181944 0 0 0 0 0.178213 0 0 0 0.75 0"/>
<feBlend mode="normal" in2="BackgroundImageFix" result="effect1_dropShadow_1494_363784"/>
<feBlend mode="normal" in="SourceGraphic" in2="effect1_dropShadow_1494_363784" result="shape"/>
</filter>
<filter id="filter7_d_1494_363784" x="165.36" y="23.1406" width="331.084" height="82.2383" filterUnits="userSpaceOnUse" color-interpolation-filters="sRGB">
<feFlood flood-opacity="0" result="BackgroundImageFix"/>
<feColorMatrix in="SourceAlpha" type="matrix" values="0 0 0 0 0 0 0 0 0 0 0 0 0 0 0 0 0 0 127 0" result="hardAlpha"/>
<feOffset/>
<feGaussianBlur stdDeviation="5"/>
<feComposite in2="hardAlpha" operator="out"/>
<feColorMatrix type="matrix" values="0 0 0 0 0.079348 0 0 0 0 0.181944 0 0 0 0 0.178213 0 0 0 0.75 0"/>
<feBlend mode="normal" in2="BackgroundImageFix" result="effect1_dropShadow_1494_363784"/>
<feBlend mode="normal" in="SourceGraphic" in2="effect1_dropShadow_1494_363784" result="shape"/>
</filter>
</defs>
</svg>
