<svg width="2011" height="186" viewBox="0 0 2011 186" fill="none" xmlns="http://www.w3.org/2000/svg">
<path d="M17.5 27.3727C-2.5 -9.05132 -22.5 -9.05132 -42.5 27.3727V213.139H2057.5V27.3727C2037.5 7.79789 2017.5 7.79789 1997.5 27.3727C1976.04 46.9475 1956.04 46.9475 1937.5 27.3727C1917.5 4.45283 1897.5 4.45283 1877.5 27.3727C1857.72 50.2926 1837.72 50.2926 1817.5 27.3727C1797.5 4.94839 1777.5 4.94839 1757.5 27.3727C1741.11 49.797 1721.11 49.797 1697.5 27.3727C1677.5 10.8952 1657.5 10.8952 1637.5 27.3727C1617.43 43.8502 1597.43 43.8502 1577.5 27.3727C1557.5 10.7713 1537.5 10.7713 1517.5 27.3727C1492.3 43.9741 1472.3 43.9741 1457.5 27.3727C1437.5 -7.19295 1417.5 -7.19295 1397.5 27.3727C1381.24 61.9383 1361.24 61.9383 1337.5 27.3727C1317.5 2.22278 1297.5 2.22278 1277.5 27.3727C1260.27 52.5226 1240.27 52.5226 1217.5 27.3727C1197.5 7.674 1177.5 7.674 1157.5 27.3727C1141.33 47.0714 1121.33 47.0714 1097.5 27.3727C1077.5 13.1252 1057.5 13.1252 1037.5 27.3727C1013.46 41.6202 993.458 41.6202 977.5 27.3727C957.5 3.4617 937.5 3.4617 917.5 27.3727C899.952 51.2837 879.952 51.2837 857.5 27.3727C837.5 8.16956 817.5 8.16956 797.5 27.3727C777.565 46.5758 757.565 46.5758 737.5 27.3727C717.5 8.29345 697.5 8.29345 677.5 27.3727C653.539 46.4519 633.539 46.4519 617.5 27.3727C597.5 -4.21956 577.5 -4.21956 557.5 27.3727C536.706 58.965 516.706 58.965 497.5 27.3727C477.5 -6.94517 457.5 -6.94517 437.5 27.3727C424.087 61.6906 404.087 61.6906 377.5 27.3727C357.5 6.68287 337.5 6.68287 317.5 27.3727C299.097 48.0625 279.097 48.0625 257.5 27.3727C237.5 9.53236 217.5 9.53236 197.5 27.3727C175.326 45.213 155.326 45.213 137.5 27.3727C117.5 4.57672 97.5 4.57672 77.5 27.3727C53.7585 50.1687 33.7585 50.1687 17.5 27.3727Z" fill="url(#paint0_linear_1494_366599)" style="mix-blend-mode:multiply"/>
<defs>
<linearGradient id="paint0_linear_1494_366599" x1="1007.5" y1="0.0546875" x2="1007.5" y2="185.008" gradientUnits="userSpaceOnUse">
<stop stop-color="#11DCE5" stop-opacity="0.8"/>
<stop offset="1" stop-color="#06484B" stop-opacity="0.9"/>
</linearGradient>
</defs>
</svg>
