<svg width="71" height="64" viewBox="0 0 71 64" fill="none" xmlns="http://www.w3.org/2000/svg">
<path d="M42.0389 37.4604C42.1818 36.6814 42.3247 35.989 42.3962 35.3831C42.825 32.4402 44.1827 30.9688 46.6124 30.9688C49.2564 30.8823 51.9004 30.9688 54.473 30.9688C58.4034 30.9688 62.2622 30.9688 66.1926 30.9688C69.6227 30.9688 71.2663 33.3923 70.6946 37.5469C69.98 42.7402 69.2654 48.02 68.5508 53.2132C68.4793 53.9057 68.4793 54.5115 69.1224 54.6846C69.2654 54.6846 69.3368 54.8577 69.4083 54.9443C70.6946 56.1561 70.766 61.9552 69.4083 63.0804C68.9795 63.4266 68.3364 63.5997 67.7647 63.5997C64.549 63.6863 61.3332 63.5997 58.046 63.5997C39.6092 63.5997 21.1724 63.5997 2.66413 63.5997C0.806152 63.5132 0.806152 63.5132 0.806152 61.0896C0.806152 56.6754 0.806152 52.1746 0.806152 47.7603C0.806152 43.0864 2.94997 39.278 6.523 37.5469C9.88164 35.989 13.2403 34.431 16.6704 32.873C17.385 32.5268 17.6708 32.094 17.5994 31.2285C17.5279 29.4974 17.4565 27.7663 16.8133 26.1218C16.1702 24.5638 16.3131 22.5731 16.0272 20.842C15.8843 20.1495 15.7414 19.3706 15.4556 18.7647C13.812 16.2546 13.3117 13.4849 14.0264 10.3689C14.1693 9.76305 14.2407 9.15718 14.3122 8.5513C15.0983 4.48325 17.0277 1.97318 20.5293 1.1942C23.1018 0.588319 25.603 0.328656 28.1755 1.1942C33.6065 3.18494 36.1791 8.37819 34.6785 15.0429C33.9638 18.1588 33.0349 21.1882 32.8205 24.4773C32.749 25.689 31.963 26.9008 31.4627 28.1125C31.3198 28.5453 31.034 29.0646 31.034 29.5839C30.891 32.5268 30.891 32.5268 33.1778 33.5654C35.7504 34.7772 38.3229 35.9024 40.8241 37.1142C41.1814 37.1142 41.6101 37.2873 42.0389 37.4604ZM66.7642 54.1653C66.9786 52.6073 67.193 51.1359 67.4074 49.6645C67.9791 45.3368 68.6222 41.0956 69.1939 36.7679C69.4797 34.2579 68.4078 32.7864 66.3355 32.7864C59.8326 32.7864 53.3297 32.7864 46.8982 32.7864C45.0402 32.7864 44.1827 33.8251 43.8969 36.0755C43.3252 40.5763 42.682 45.0771 42.0389 49.4914C41.8245 51.0494 41.6816 52.5208 41.4672 54.1653C49.971 54.1653 58.3319 54.1653 66.7642 54.1653ZM21.5297 43.7788C20.6722 44.7309 20.1005 44.4713 19.4574 43.5192C17.9567 41.1822 16.456 39.0183 14.8839 36.8545C14.6695 36.5083 14.0264 36.2486 13.7405 36.4217C11.4538 37.3738 9.09558 38.4125 6.8803 39.6242C4.02188 41.1822 2.52121 43.9519 2.52121 47.8469C2.52121 52.0015 2.52121 56.1561 2.52121 60.3107C2.52121 60.7434 2.59267 61.2628 2.59267 61.6955C4.5221 61.6955 6.30861 61.6955 8.23805 61.6955C8.23805 61.0896 8.23805 60.5703 8.23805 60.051C8.23805 57.0216 8.23805 54.0788 8.23805 51.0494C8.23805 50.6166 8.66681 50.1838 8.95265 49.6645C9.2385 50.0973 9.66726 50.53 9.66726 51.0494C9.73872 54.0788 9.66726 57.1082 9.73872 60.1376C9.73872 60.6569 9.81018 61.1762 9.81018 61.7821C13.4547 61.7821 16.9562 61.7821 20.4578 61.7821C20.7436 61.7821 21.1724 61.2628 21.1724 61.0031C21.6012 56.6754 21.9585 52.4342 22.4587 48.1065C22.5302 46.3754 22.4587 45.0771 21.5297 43.7788ZM37.6083 61.609C37.6083 59.9644 37.4654 58.4065 37.6798 56.8485C37.7513 55.983 38.2515 54.8577 38.8232 54.5981C39.7522 54.1653 39.8951 53.3863 40.038 52.4342C40.5382 48.5393 41.1099 44.6444 41.6816 40.7494C41.8245 39.8839 41.753 39.3646 40.967 39.0183C39.0375 38.2394 37.1081 37.2873 35.1787 36.3352C34.4641 35.989 34.1068 36.1621 33.678 36.8545C32.3203 38.9318 30.891 40.9225 29.5333 42.9998C28.8187 44.0385 28.1755 44.904 26.7463 43.3461C26.6034 45.0771 26.3176 46.3754 26.3176 47.5872C26.389 49.7511 26.7463 52.0015 26.9607 54.1653C27.1751 56.5888 27.4609 59.0989 27.7468 61.5224C31.034 61.609 34.2497 61.609 37.6083 61.609ZM31.6771 21.2748C31.3913 20.1495 31.034 18.9378 30.7481 17.8126C30.4623 16.6874 30.0335 15.5622 29.7477 14.437C29.4618 13.3118 28.9616 12.7059 28.0326 13.0521C25.7459 13.8311 23.4591 13.8311 21.1009 13.0521C20.2434 12.7924 19.6717 13.1387 19.3859 14.2639C19.1001 15.4756 18.8142 16.6874 18.314 17.726C17.6708 19.0243 17.5279 20.4092 17.5994 21.8806C17.8138 27.247 21.4583 30.9688 25.8173 30.1033C28.8901 29.4974 31.6771 25.9487 31.6771 21.2748ZM54.0443 56.1561C50.0425 56.1561 46.1121 56.1561 42.1103 56.1561C39.2519 56.1561 39.2519 56.1561 39.2519 59.7048C39.2519 61.609 39.2519 61.609 40.8241 61.609C49.1135 61.609 57.4029 61.609 65.6923 61.609C69.2654 61.609 68.6937 62.1283 68.7651 57.9737C68.8366 56.4157 68.3364 56.1561 67.193 56.1561C62.8339 56.2426 58.4034 56.1561 54.0443 56.1561ZM16.8133 17.5529C17.2421 16.0815 17.5994 14.9563 17.8138 13.8311C18.2425 11.8404 19.6717 10.6286 21.3153 11.1479C23.4591 11.8404 25.603 11.8404 27.8182 11.1479C29.4618 10.6286 30.8196 11.7538 31.2483 13.7445C31.5342 14.8697 31.82 15.9084 32.1773 17.0336C32.6776 16.3412 32.8919 15.7353 33.0349 15.1294C34.5355 9.07062 32.3917 4.56981 27.5324 2.92528C25.1742 2.14629 22.816 2.49251 20.4578 3.18494C17.9567 3.87737 16.5989 5.86812 15.9558 8.72441C15.7414 9.76305 15.5985 10.8017 15.3841 11.8404C14.9553 13.8311 15.5985 15.5622 16.8133 17.5529ZM19.1001 30.0167C19.3144 31.1419 19.1715 32.3537 19.6003 32.873C21.1009 34.6906 22.7445 36.3352 24.3881 38.0662C25.8173 36.5083 27.2466 34.8637 28.6758 33.3923C29.5333 32.6133 29.5333 31.6612 29.2474 30.6226C25.3171 33.0461 22.4587 32.5268 19.1001 30.0167ZM26.0317 61.609C25.5315 56.5888 25.0313 51.6552 24.5311 46.7217C24.3881 46.7217 24.2452 46.7217 24.1023 46.7217C23.6021 51.6552 23.1733 56.5888 22.6731 61.609C23.745 61.609 24.8169 61.609 26.0317 61.609ZM27.9612 42.0477C29.5333 39.7108 31.034 37.5469 32.749 35.0369C31.6771 34.8638 30.5337 34.1713 30.0335 34.6041C28.4614 35.989 27.1036 37.72 25.5315 39.4511C26.389 40.3167 27.1036 41.1822 27.9612 42.0477ZM23.1018 39.4511C21.887 38.1528 20.7436 36.941 19.6003 35.6427C18.0996 33.9982 18.0996 33.9982 16.0272 35.3831C17.5279 37.6335 19.0286 39.7973 20.6007 42.0477C21.4583 41.1822 22.2443 40.3167 23.1018 39.4511ZM24.3167 40.836C22.7445 42.2208 22.6731 42.8267 23.6735 44.2116C23.8879 44.4713 24.6025 44.5578 24.8169 44.3847C25.8888 43.2595 25.6744 42.2208 24.3167 40.836Z" fill="white"/>
<path d="M62.4769 43.5193C61.2621 42.3941 60.1187 41.3555 58.9754 40.3168C58.761 40.1437 58.4751 40.0571 58.4037 39.7975C58.2608 39.3647 58.1893 38.8454 58.1178 38.4126C58.5466 38.3261 59.0468 38.0664 59.3327 38.3261C60.9763 39.7109 62.5484 41.1823 64.1205 42.6538C64.8351 43.2596 64.6922 43.9521 64.0491 44.558C62.5484 45.9428 61.0477 47.3277 59.4041 48.626C59.1183 48.8857 58.5466 48.626 58.0464 48.626C58.1893 48.1067 58.1893 47.5008 58.4037 47.1546C59.8329 45.9428 61.1192 44.7311 62.4769 43.5193Z" fill="white"/>
<path d="M48.0422 43.519C49.3999 44.7307 50.6147 45.7694 51.7581 46.9811C52.1154 47.3274 52.1869 48.0198 52.3298 48.6257C51.8296 48.6257 51.1864 48.7988 50.7577 48.4526C49.257 47.2408 47.8992 45.8559 46.47 44.5576C45.6125 43.7786 45.541 43.2593 46.3986 42.4803C47.8992 41.0955 49.3999 39.7106 50.972 38.4123C51.2579 38.1526 51.7581 38.4123 52.1869 38.4123C52.1154 38.9316 52.1154 39.624 51.901 39.8837C50.7577 41.0955 49.4714 42.2207 48.0422 43.519Z" fill="white"/>
<path d="M56.7598 37.2869C56.2595 41.7012 55.8308 45.6827 55.2591 49.6642C55.1876 50.0104 54.6874 50.2701 54.3301 50.6163C54.1157 50.1835 53.687 49.6642 53.7584 49.318C54.1157 45.3365 54.616 41.355 55.1162 37.46C55.1876 37.0273 55.6879 36.6811 56.0452 36.2483C56.331 36.6811 56.6169 37.1138 56.7598 37.2869Z" fill="white"/>
</svg>
