<svg width="71" height="76" viewBox="0 0 71 76" fill="none" xmlns="http://www.w3.org/2000/svg">
<path d="M34.1799 75.8867C31.6068 75.0095 30.063 73.06 28.9308 70.9155C27.1811 67.6989 26.1519 64.1898 25.3285 60.5833C25.0197 59.1212 24.8139 57.6591 24.5051 56.2944C24.5051 56.197 24.4022 56.002 24.4022 55.8071C23.3729 56.197 22.3437 56.5869 21.3145 56.8793C21.0057 55.9045 20.6969 55.0273 20.3882 54.0525C21.3145 53.6626 22.3437 53.3702 23.3729 52.9803C24.2993 52.6879 24.2993 52.103 23.5788 51.5182C21.0057 49.4712 19.1531 47.0344 18.1238 44.0127C17.8151 43.1354 17.7121 42.2582 17.4034 41.3809C17.3004 40.8935 16.9917 40.5036 16.6829 40.0163C12.1543 43.4278 7.93438 46.8394 4.74374 51.3232C4.1262 52.2005 3.71451 53.1753 3.40574 54.15C2.99404 55.2222 3.61158 56.197 4.74374 56.4894C5.77298 56.7818 6.90514 56.7818 8.0373 56.9767C8.14023 57.7565 8.24315 58.7313 8.449 59.706C6.2876 59.706 4.22913 59.6086 2.3765 58.5363C0.626796 57.4641 -0.0936705 55.6121 0.523872 53.4677C1.14141 51.0308 2.68527 48.9839 4.33205 47.0344C7.00807 43.9152 10.1987 41.2834 13.3893 38.7491C13.5952 38.6516 13.6981 38.4567 14.0069 38.2617C13.5952 37.8718 13.1835 37.5794 12.7718 37.287C9.27239 34.5577 5.87591 31.6335 3.19989 28.1244C1.86188 26.3699 0.729719 24.5179 0.420948 22.276C0.112177 20.229 1.03849 18.572 3.09697 17.6947C4.94959 16.8174 7.00807 16.7199 9.06654 16.9149C14.2127 17.3048 18.9472 18.7669 23.6817 20.424C23.9905 20.5214 24.2993 20.6189 24.7109 20.8139C24.9168 19.7416 25.1226 18.6694 25.3285 17.6947C26.3577 17.8896 27.284 18.0846 28.4162 18.377C28.2104 19.3517 28.1074 20.3265 27.9016 21.3012C27.7987 22.081 28.2104 22.4709 29.0337 22.1785C33.2536 20.7164 37.5764 20.7164 41.7963 22.1785C42.5168 22.4709 43.0314 22.081 42.9284 21.4962C42.208 17.2073 41.3846 12.9185 39.6349 8.82454C38.8115 7.45991 38.091 6.09527 37.1647 4.8281C35.9296 3.17105 34.3858 3.17105 32.9448 4.8281C32.5331 5.41295 32.1215 5.99779 31.7098 6.58264C31.2981 6.38769 30.8864 6.19274 30.3718 5.99779C29.9601 5.80285 29.4454 5.70537 28.9308 5.6079C29.6513 3.17105 32.8419 0.636719 35.2092 0.636719C36.5472 0.636719 37.6793 1.22156 38.6057 2.09883C40.2524 3.56094 41.3846 5.51042 42.208 7.55738C43.8548 11.2614 44.7811 15.2578 45.5015 19.2543C45.6045 19.7416 45.7074 20.229 45.8103 20.8139C47.1483 20.3265 48.4863 19.8391 49.8243 19.4492C53.6325 18.2795 57.4407 17.2073 61.4547 16.9149C63.3073 16.8174 65.057 16.9149 66.8068 17.4023C68.6594 17.9871 69.8945 19.1568 70.1003 21.0088C70.1003 21.1063 70.2032 21.2038 70.2032 21.3012C70.2032 21.4962 70.2032 21.6911 70.2032 21.8861C69.6886 24.8103 68.2477 27.2471 66.1892 29.3916C64.1307 31.536 61.9693 33.583 59.8079 35.5324C58.7787 36.5072 57.6465 37.287 56.5144 38.1642C57.5436 38.944 58.4699 39.7238 59.3962 40.4062C58.6758 41.1859 58.0582 41.8683 57.3378 42.6481C56.2056 41.7708 55.0734 40.8935 53.7354 39.9188C53.4267 40.4062 53.2208 40.8935 53.015 41.2834C52.5004 42.6481 52.1916 44.0127 51.677 45.2799C50.6477 47.7167 48.898 49.6662 46.8396 51.3232C46.1191 51.8106 46.1191 52.4929 46.8396 52.6879C51.574 54.4424 56.4115 56.002 61.5576 56.4894C62.8957 56.5868 64.3366 56.4894 65.6746 56.197C66.9097 56.002 67.4243 55.0273 67.1155 53.8576C66.9097 52.9803 66.498 52.103 66.0863 51.2258C66.8067 50.7384 67.6301 50.1536 68.4535 49.5687C68.5564 49.7637 68.7623 50.0561 68.8652 50.251C69.3798 51.5182 69.7915 52.7854 70.3062 54.0525C70.3062 54.3449 70.3062 54.6374 70.3062 54.9298C69.8945 57.2692 68.3506 58.5363 65.9834 58.9262C64.5424 59.2187 63.1015 59.2187 61.5576 59.2187C58.367 59.1212 55.2793 58.3414 52.1916 57.4641C50.1331 56.7818 47.9717 56.0995 45.9132 55.4172C45.9132 55.5146 45.8103 55.6121 45.8103 55.7096C45.5015 57.1717 45.2957 58.6338 44.9869 59.9984C44.1635 63.7025 43.1343 67.309 41.2817 70.6231C40.1495 72.7676 38.6057 74.6196 36.1355 75.3993C35.415 75.8867 34.7975 75.8867 34.1799 75.8867ZM50.6477 38.2617C50.6477 30.1714 43.7518 23.5431 35.2092 23.5431C26.6665 23.5431 19.6677 30.0739 19.6677 38.0668C19.6677 46.2546 26.5636 52.8828 35.1062 52.8828C43.6489 52.9803 50.6477 46.3521 50.6477 38.2617ZM35.415 72.9625C35.8267 72.7675 36.4443 72.4751 36.8559 71.9878C37.5764 71.1105 38.2969 70.1358 38.7086 69.161C40.87 64.6772 41.7963 59.8035 42.6197 54.9298C42.6197 54.7348 42.4138 54.4424 42.208 54.3449C41.8992 54.2475 41.4875 54.2475 41.1787 54.3449C38.5027 55.2222 35.7238 55.6121 32.9448 55.2222C31.5039 55.0273 30.063 54.6374 28.622 54.2475C27.9016 54.0525 27.284 54.3449 27.387 54.9298C28.1074 59.3161 28.9308 63.605 30.7834 67.7964C31.401 69.161 32.2244 70.4282 32.9448 71.5979C33.4595 72.3777 34.1799 72.865 35.415 72.9625ZM16.477 36.5072C16.7858 36.0198 17.0946 35.6299 17.1975 35.24C17.7121 32.6082 18.7414 30.0739 20.594 28.0269C21.5203 26.9547 22.5495 25.98 23.5788 25.0052C24.0934 24.5179 24.0934 23.933 23.3729 23.6406C18.6384 21.8861 13.904 20.3265 8.86069 19.8391C7.52269 19.7416 6.08175 19.8391 4.74374 20.0341C3.40574 20.3265 2.99404 21.2038 3.19989 22.4709C3.50866 23.933 4.43497 25.2002 5.36129 26.3699C8.55192 30.1714 12.3601 33.388 16.477 36.5072ZM53.7354 36.5072C57.5436 33.6804 61.043 30.7562 64.0278 27.4421C65.16 26.0775 66.2921 24.7128 66.9097 23.0558C67.5272 21.3012 66.9097 20.1315 64.9541 19.9366C63.4103 19.7416 61.7635 19.7416 60.2196 19.9366C55.5881 20.5214 51.1623 21.9835 46.8396 23.6406C46.222 23.8356 46.1191 24.4204 46.5308 24.9078C46.6337 25.0052 46.8396 25.1027 46.9425 25.2002C50.236 27.832 52.1916 31.2436 53.015 35.24C53.1179 35.6299 53.4267 36.0198 53.7354 36.5072Z" fill="white"/>
<path d="M32.3273 11.9438C32.3273 14.1857 30.4747 16.0377 28.1075 16.0377C25.7402 16.0377 23.7847 14.1857 23.7847 11.9438C23.7847 9.70186 25.7402 7.84985 28.1075 7.84985C30.4747 7.84985 32.3273 9.60439 32.3273 11.9438Z" fill="white"/>
<path d="M10.3018 57.1718C10.3018 54.9299 12.2573 53.0779 14.6246 53.0779C16.9918 53.0779 18.9474 54.9299 18.9474 57.2693C18.9474 59.5112 16.9918 61.3632 14.5216 61.2657C12.1544 61.2657 10.3018 59.4137 10.3018 57.1718Z" fill="white"/>
<path d="M58.3672 45.5722C58.3672 43.3303 60.3227 41.4783 62.69 41.4783C65.0572 41.4783 67.0128 43.3303 67.0128 45.5722C67.0128 47.8141 65.0572 49.6661 62.69 49.6661C60.3227 49.6661 58.3672 47.8141 58.3672 45.5722Z" fill="white"/>
<path d="M35.106 35.7274C33.0475 35.63 31.092 35.3375 29.3423 34.5577C28.7247 34.2653 28.0043 33.8754 27.4897 33.3881C26.5633 32.5108 26.6663 31.4386 27.5926 30.5613C28.7247 29.4891 30.1657 29.0017 31.6066 28.7093C34.5914 28.1245 37.5762 28.2219 40.458 29.1967C41.1785 29.4891 42.0019 29.879 42.5165 30.3664C43.7516 31.3411 43.7516 32.8032 42.4136 33.6805C41.4873 34.3628 40.3551 34.8502 39.223 35.1426C37.8849 35.435 36.444 35.5325 35.106 35.7274Z" fill="white"/>
<path d="M43.443 38.3592C43.443 39.139 43.443 39.8213 43.443 40.6011C43.3401 41.4784 42.8255 42.0632 42.105 42.4531C40.767 43.3304 39.2232 43.7203 37.6793 43.9152C35.2092 44.3051 32.6361 44.2076 30.2688 43.4278C29.6513 43.2329 28.9308 42.9405 28.4162 42.5506C27.284 41.8683 26.6665 40.991 26.7694 39.7238C26.7694 39.2365 26.7694 38.7491 26.7694 38.2617C29.2396 41.3809 32.739 41.4784 36.2384 41.3809C37.6793 41.3809 39.1203 40.991 40.5612 40.6011C41.7963 40.1137 42.7226 39.4314 43.443 38.3592Z" fill="white"/>
<path d="M26.8721 42.3555C27.9014 44.0126 29.5481 44.5974 31.2978 44.9873C34.3855 45.6696 37.3703 45.4747 40.3551 44.5C41.5902 44.1101 42.6195 43.4277 43.237 42.2581C43.9575 44.1101 43.3399 45.7671 41.5902 46.6444C39.12 47.9116 36.3411 48.204 33.5622 48.009C32.5329 47.9115 31.4008 47.8141 30.4744 47.5217C26.7692 46.4494 26.6663 45.2798 26.8721 42.3555Z" fill="white"/>
<path d="M43.4431 34.2652C43.4431 34.9475 43.4431 35.6298 43.4431 36.4096C43.4431 37.1894 42.9285 37.7743 42.3109 38.1642C41.0758 39.0414 39.6349 39.4313 38.194 39.6263C35.415 40.0162 32.739 40.0162 30.063 39.1389C29.4455 38.944 28.8279 38.6515 28.3133 38.3591C27.2841 37.6768 26.6665 36.7995 26.7694 35.6298C26.7694 35.1425 26.7694 34.7526 26.7694 34.1677C29.2396 37.1894 32.6361 37.2869 36.1355 37.1894C37.6794 37.1894 39.1203 36.7995 40.5612 36.4096C41.7963 36.0197 42.7226 35.3374 43.4431 34.2652Z" fill="white"/>
</svg>
