<svg width="71" height="65" viewBox="0 0 71 65" fill="none" xmlns="http://www.w3.org/2000/svg">
<path d="M23.2749 6.58974C23.9195 7.40627 24.5434 9.48647 24.4602 10.6335C24.0027 10.6335 23.5452 10.6335 23.0669 10.6335C22.6926 10.6335 22.3183 10.6141 21.944 10.6335C21.3825 10.6529 21.029 10.964 21.0706 11.4112C21.1122 11.8972 21.4449 12.1305 21.944 12.1305C22.5678 12.1305 23.2125 12.1305 23.8363 12.1305C24.0235 12.1305 24.2315 12.1499 24.481 12.1499C24.3978 13.5886 24.0027 14.9106 23.3165 16.2131C22.5886 15.8243 21.9024 15.4549 21.2162 15.105C20.6755 14.8134 20.2388 14.8717 19.9685 15.2605C19.6981 15.6493 19.8645 16.0965 20.4051 16.4075C21.0914 16.7769 21.7568 17.1463 22.5055 17.5546C21.6529 18.7599 20.6131 19.732 19.303 20.5485C18.8663 19.8486 18.4712 19.1876 18.0345 18.5266C17.8058 18.1767 17.4938 17.9239 17.0155 18.0989C16.5165 18.2739 16.3501 18.7405 16.6412 19.2459C17.0363 19.9264 17.4522 20.5874 17.9097 21.3067C16.5165 21.9677 15.1024 22.3177 13.5012 22.3954C13.5012 21.6178 13.5012 20.879 13.5012 20.1597C13.5012 19.5376 13.1892 19.1876 12.711 19.2071C12.2119 19.2265 11.9415 19.5764 11.9415 20.1791C11.9415 20.8984 11.9415 21.6178 11.9415 22.3954C10.3611 22.3177 8.94704 21.9483 7.55377 21.3262C7.96967 20.6263 8.38557 19.9847 8.78068 19.3237C9.09261 18.8182 9.00943 18.4294 8.57273 18.1767C8.15683 17.9434 7.72013 18.0795 7.4082 18.5655C6.9923 19.2071 6.59719 19.8486 6.18129 20.4902C5.22471 20.0819 3.64428 18.6238 2.97884 17.5351C3.51951 17.2435 4.06019 16.9519 4.58006 16.6603C4.80881 16.5436 5.03756 16.427 5.24551 16.2909C5.64062 16.0187 5.76539 15.6688 5.49505 15.2799C5.22471 14.9106 4.8504 14.8134 4.4137 15.0272C3.66508 15.416 2.93725 15.8049 2.16783 16.2131C1.44 14.9494 1.08648 13.6274 0.961713 12.1305C1.62716 12.1305 2.27181 12.1305 2.91645 12.1305C3.1452 12.1305 3.39474 12.1499 3.62349 12.1305C4.06019 12.0722 4.37211 11.8583 4.35132 11.4112C4.33052 10.9834 4.08098 10.7113 3.62349 10.6918C2.97884 10.6724 2.3134 10.6724 1.66875 10.6724C1.4608 10.6724 1.23205 10.6724 0.940918 10.6724C1.0241 9.2143 1.44 7.8923 2.12624 6.5703C2.85407 6.95912 3.5611 7.3285 4.24734 7.69789C4.66324 7.91174 5.07915 7.97006 5.43266 7.58124C5.76539 7.21186 5.64062 6.70639 5.12074 6.43421C4.4137 6.04539 3.68587 5.65656 2.91645 5.2483C3.81064 4.08183 4.80881 3.07089 6.1397 2.2738C6.5556 2.9348 6.95071 3.57636 7.34581 4.19847C7.67854 4.72339 8.13603 4.87892 8.55193 4.60674C8.96783 4.354 9.03022 3.94574 8.73909 3.44027C8.34398 2.79871 7.94887 2.17659 7.53297 1.47671C8.92624 0.815709 10.3403 0.465768 11.9415 0.368562C11.9415 1.14621 11.9415 1.88497 11.9415 2.6043C11.9415 3.20697 12.2535 3.57636 12.7318 3.55692C13.2308 3.55692 13.5012 3.20697 13.5012 2.56542C13.5012 1.84609 13.5012 1.12677 13.5012 0.349121C15.0816 0.465768 16.4957 0.835151 17.9097 1.47671C17.4938 2.15715 17.0779 2.79871 16.7036 3.45971C16.5788 3.67356 16.4957 3.98462 16.5788 4.17903C16.662 4.39289 16.974 4.66506 17.1819 4.66506C17.4314 4.6845 17.8058 4.52897 17.9721 4.33456C18.3672 3.82909 18.6584 3.2653 19.0119 2.72094C19.1159 2.56542 19.2198 2.40989 19.3446 2.23492C20.6547 3.032 21.6529 4.00406 22.547 5.20942C21.9232 5.55936 21.2993 5.87042 20.6963 6.20092C20.5091 6.29812 20.3012 6.39533 20.1556 6.53141C19.8437 6.80359 19.7605 7.13409 19.9892 7.48403C20.2596 7.87286 20.6547 7.93118 21.0706 7.73677C21.6529 7.44515 22.1935 7.13409 22.755 6.84247C22.9422 6.74527 23.1085 6.6675 23.2749 6.58974ZM11.9415 10.6335C10.9018 10.6335 9.9452 10.6335 8.98863 10.6335C8.38557 10.6335 8.03205 10.9251 8.03205 11.3917C8.03205 11.8389 8.38557 12.1305 8.98863 12.1305C10.174 12.1305 11.3593 12.1305 12.5238 12.1305C13.2516 12.1305 13.522 11.8777 13.522 11.1973C13.522 9.85586 13.522 8.51441 13.522 7.17297C13.522 6.62862 13.522 6.06483 13.522 5.52047C13.5012 5.05389 13.21 4.78171 12.7318 4.78171C12.2535 4.78171 11.9831 5.05389 11.9415 5.52047C11.9207 5.69545 11.9415 5.88986 11.9415 6.06483C11.9415 7.54236 11.9415 9.03933 11.9415 10.6335Z" fill="white"/>
<path d="M70.9376 53.3651C70.9376 59.4307 65.6765 64.3882 59.1676 64.3882C52.6587 64.3882 47.356 59.4307 47.356 53.3457C47.356 47.3189 52.6587 42.3614 59.1052 42.3614C65.6973 42.3419 70.9376 47.2411 70.9376 53.3651ZM59.9578 48.0771C61.0599 48.5437 61.559 49.263 61.6422 50.2545C61.6838 50.7405 61.9333 51.0127 62.4532 51.0127C62.9315 51.0127 63.2226 50.7016 63.2018 50.1962C63.1602 48.7575 62.474 47.5716 61.0807 46.9884C60.1658 46.5996 59.7914 46.1913 59.9162 45.2581C59.9786 44.7915 59.5627 44.4416 59.126 44.4805C58.6061 44.5194 58.3566 44.811 58.3358 45.297C58.315 45.7053 58.3358 46.1135 58.3358 46.5218C56.3187 47.0856 55.0917 48.2909 55.0709 50.2739C55.0709 52.2764 56.2771 53.5012 58.2942 54.065C58.2942 55.5814 58.2942 57.0589 58.2942 58.5559C57.3376 58.3226 56.7553 57.5838 56.6514 56.5534C56.6098 56.0091 56.2563 55.6592 55.778 55.698C55.2997 55.7369 54.9878 56.1063 55.0502 56.6507C55.1749 57.9921 55.778 59.1391 57.0881 59.6835C58.0446 60.0917 58.5021 60.5194 58.3358 61.5109C58.2734 61.8998 58.6061 62.1914 59.0844 62.2108C59.5419 62.2108 59.833 61.9775 59.8954 61.5498C59.937 61.2388 59.937 60.9277 59.9162 60.6166C59.8954 60.325 59.9994 60.1695 60.3321 60.0723C62.1205 59.5085 63.181 58.1476 63.181 56.4757C63.181 54.7843 62.1205 53.4234 60.3321 52.8013C60.1658 52.743 59.9578 52.4902 59.937 52.3153C59.8954 51.6737 59.9162 51.0321 59.9162 50.3906C59.9578 49.6129 59.9578 48.8936 59.9578 48.0771Z" fill="white"/>
<path d="M59.1669 0.348941C65.9461 0.48503 71.1033 5.44253 70.9369 11.7026C70.7914 17.6516 65.4054 22.5119 59.0629 22.3952C52.4085 22.2786 47.2097 17.2628 47.3553 11.0805C47.5008 5.18979 52.9492 0.232294 59.1669 0.348941ZM55.5278 15.5908C55.5278 15.3381 55.5278 15.1242 55.5278 14.9298C55.5278 12.9079 55.5278 10.8666 55.5278 8.84474C55.5278 8.12541 55.2574 7.87268 54.5088 7.87268C53.677 7.85324 52.8452 7.87268 52.0342 7.87268C51.2024 7.87268 50.932 8.12541 50.932 8.90306C50.932 10.9249 50.932 12.9663 50.932 14.9881C50.932 15.1826 50.932 15.377 50.932 15.5908C50.7449 15.6297 50.5577 15.6297 50.4953 15.7075C50.2874 15.9408 49.9963 16.2129 49.9963 16.4657C49.9963 16.699 50.3498 16.9323 50.5785 17.1072C50.6825 17.185 50.8904 17.1461 51.036 17.1461C56.4843 17.1461 61.9119 17.1461 67.3602 17.1461C67.485 17.1461 67.6305 17.185 67.7137 17.1267C67.9632 16.9323 68.3583 16.7184 68.3791 16.4851C68.4207 16.2518 68.1088 15.9408 67.9009 15.7075C67.8177 15.6103 67.6097 15.6103 67.4226 15.5714C67.4226 15.3381 67.4226 15.1242 67.4226 14.9104C67.4226 12.2275 67.4226 9.52518 67.4226 6.8423C67.4226 5.87024 67.2146 5.69527 66.1749 5.69527C65.447 5.69527 64.7192 5.67582 63.9914 5.69527C62.9932 5.69527 62.7853 5.90912 62.7853 6.8423C62.7853 9.54462 62.7853 12.2664 62.7853 14.9687C62.7853 15.1826 62.7853 15.3964 62.7853 15.6103C62.307 15.6103 61.9119 15.6103 61.4752 15.6103C61.4752 15.377 61.4752 15.202 61.4752 15.0076C61.4752 13.5495 61.4752 12.0914 61.4752 10.6333C61.4752 9.85568 61.2256 9.62238 60.373 9.62238C59.5412 9.62238 58.7094 9.62238 57.8984 9.62238C57.1706 9.62238 56.9002 9.87512 56.8794 10.5556C56.8586 11.3138 56.8794 12.072 56.8794 12.8302C56.8794 13.7439 56.8794 14.6576 56.8794 15.6103C56.3804 15.5908 56.006 15.5908 55.5278 15.5908Z" fill="white"/>
<path d="M47.4801 41.3116C46.8146 41.9338 46.17 42.517 45.463 43.1586C44.8183 42.6142 44.1113 42.0115 43.425 41.4283C42.822 40.9228 42.6348 40.9617 41.907 41.2728C40.7633 41.7782 39.5779 42.2254 38.3718 42.6336C37.8104 42.8086 37.4984 43.0419 37.4776 43.6251C37.4568 44.5194 37.3737 45.4137 37.3321 46.3469C36.3755 46.3469 35.4813 46.3469 34.5247 46.3469C34.4831 45.4137 34.4 44.5 34.3792 43.5863C34.3584 43.0225 34.0464 42.8281 33.5058 42.6531C32.2997 42.2448 31.0935 41.7782 29.9082 41.2728C29.2012 40.9617 29.0348 40.9423 28.4526 41.4283C27.7663 42.0115 27.0801 42.5948 26.3938 43.178C25.7284 42.5559 25.0837 41.9338 24.3975 41.2922C24.9798 40.709 25.6036 40.0674 26.2275 39.4259C26.8097 38.8232 26.7681 38.6871 26.3938 37.9678C25.8532 36.8985 25.3749 35.7904 24.959 34.6628C24.7718 34.1573 24.5431 33.8657 23.94 33.8462C22.9626 33.8268 21.9853 33.749 20.9663 33.7101C20.9663 32.8159 20.9663 31.9799 20.9663 31.0856C21.9021 31.0467 22.7963 31.0273 23.7113 30.9689C24.6678 30.9106 24.6886 30.794 25.0006 29.9774C25.4165 28.8693 25.9363 27.8 26.477 26.7502C26.7266 26.2642 26.7681 25.9142 26.3522 25.506C25.6868 24.8644 25.0422 24.184 24.3975 23.523C25.0837 22.9009 25.7284 22.2982 26.4146 21.6761C27.0593 22.2204 27.7455 22.8036 28.4318 23.3869C29.0556 23.9118 29.2428 23.9312 29.929 23.5424C31.0519 22.9009 32.2373 22.4148 33.5266 22.1815C34.0672 22.0843 34.3376 21.8121 34.3584 21.2678C34.4 20.3541 34.4623 19.4403 34.5247 18.4683C35.4605 18.4683 36.3547 18.4683 37.3321 18.4683C37.3737 19.3042 37.4152 20.1596 37.4776 20.9956C37.54 21.9288 37.6232 21.9288 38.559 22.2204C39.7235 22.5898 40.8672 23.0758 41.9694 23.5813C42.5101 23.834 42.9052 23.8729 43.3419 23.4646C44.0281 22.8425 44.7559 22.2399 45.463 21.6372C46.1492 22.2593 46.7938 22.862 47.4801 23.5035C46.8354 24.1645 46.2116 24.8061 45.5669 25.4671C45.0886 25.9726 45.0471 26.2253 45.4214 26.7891C46.1076 27.8584 46.6691 28.9665 46.9186 30.1913C47.0226 30.6968 47.3345 30.9495 47.896 30.9689C48.8734 31.0078 49.8507 31.0467 50.8697 31.105C50.8697 31.9993 50.8697 32.8353 50.8697 33.7296C49.8923 33.7879 48.9357 33.8462 47.9792 33.8657C47.3553 33.8851 47.0226 34.099 46.9186 34.6822C46.6691 35.907 46.1284 37.0346 45.4214 38.0844C45.0886 38.5704 45.1302 38.9593 45.5461 39.3675C46.2116 39.9508 46.8354 40.6312 47.4801 41.3116ZM44.1529 32.3687C44.1529 28.1305 40.4929 24.6894 35.9804 24.67C31.447 24.6506 27.7247 28.1305 27.7247 32.3687C27.7247 36.6069 31.4055 40.0285 35.9596 40.0285C40.4929 40.048 44.1529 36.6069 44.1529 32.3687Z" fill="white"/>
<path d="M12.7525 42.3423C19.2614 42.3423 24.5226 47.2803 24.5226 53.346C24.5226 59.4505 19.2198 64.3886 12.6902 64.3691C6.20208 64.3691 0.940918 59.4116 0.940918 53.3266C0.940918 47.2609 6.22288 42.3423 12.7525 42.3423ZM12.7525 53.8903C12.607 53.7348 12.4822 53.6571 12.4198 53.5598C11.7128 52.2378 10.5275 52.024 9.07181 52.1018C6.68037 52.2378 4.95438 53.7931 4.93358 56.0289C4.93358 57.2148 4.93358 58.3813 4.93358 59.5672C4.93358 60.4031 5.16233 60.617 6.05652 60.617C8.98863 60.617 11.9207 60.617 14.8736 60.617C16.4333 60.617 17.9929 60.617 19.5525 60.617C20.218 60.617 20.5091 60.3643 20.5091 59.7616C20.5091 58.4396 20.5507 57.0981 20.5091 55.7761C20.4467 53.9487 18.9911 52.4323 17.0571 52.199C16.2877 52.1018 15.4767 52.1212 14.7073 52.1406C14.4577 52.1601 14.1458 52.335 13.9795 52.51C13.522 52.9377 13.1684 53.4043 12.7525 53.8903ZM12.7525 44.3058C10.5483 44.3058 8.78068 45.9583 8.75988 48.0191C8.75988 50.0604 10.5691 51.7518 12.7525 51.7518C14.9152 51.7518 16.7036 50.0799 16.7036 48.058C16.7036 45.9778 14.9568 44.3058 12.7525 44.3058Z" fill="white"/>
<path d="M33.5686 54.5707C34.2132 54.5707 34.7955 54.5707 35.3777 54.5707C37.3325 54.5707 39.2872 54.5707 41.2212 54.5707C41.4083 54.5707 41.6163 54.5707 41.8034 54.5902C42.5105 54.6679 42.968 55.154 42.9472 55.7761C42.9264 56.3982 42.4273 56.8453 41.6994 56.8648C40.8676 56.8842 40.0358 56.8648 39.2248 56.8648C37.5404 56.8648 35.8352 56.8648 34.1508 56.8648C33.9637 56.8648 33.7765 56.8648 33.5478 56.8648C33.5894 57.0786 33.6309 57.2342 33.6517 57.4091C33.6933 57.8757 33.5478 58.3229 33.0903 58.459C32.716 58.5756 32.1753 58.6339 31.8842 58.459C30.9484 57.8757 30.0958 57.1953 29.264 56.4954C28.6817 56.0094 28.7857 55.2901 29.4095 54.804C30.1374 54.2402 30.886 53.6959 31.6138 53.1515C32.0921 52.7821 32.5704 52.6655 33.1319 52.9766C33.6101 53.2487 33.7765 53.6959 33.6101 54.3374C33.6101 54.3763 33.6101 54.4152 33.5686 54.5707Z" fill="white"/>
<path d="M59.6661 34.6045C59.6661 34.274 59.6661 33.9824 59.6661 33.6908C59.6661 31.4745 59.6661 29.2582 59.6661 27.0614C59.6661 26.3226 60.1652 25.8171 60.8515 25.7977C61.5377 25.7782 62.0368 26.2643 62.0784 27.0225C62.0992 27.2752 62.0992 27.5474 62.0992 27.8001C62.0992 29.8609 62.0992 31.9217 62.0992 34.0019C62.0992 34.1963 62.0992 34.3907 62.0992 34.624C62.3279 34.5851 62.4735 34.5462 62.619 34.5268C63.1389 34.4684 63.5548 34.6434 63.8252 35.0711C64.0747 35.4794 64.0747 35.8877 63.7836 36.257C63.1181 37.0541 62.4527 37.8512 61.7457 38.6289C61.2882 39.1149 60.5395 39.1343 60.0612 38.6289C59.3334 37.8512 58.6472 37.0347 57.9817 36.2376C57.6906 35.8877 57.6906 35.4794 57.9193 35.0906C58.1689 34.6823 58.5432 34.4879 59.0423 34.5268C59.2294 34.5073 59.3958 34.5462 59.6661 34.6045Z" fill="white"/>
<path d="M38.3511 10.1473C35.8141 10.1473 33.3395 10.1473 30.8857 10.1473C30.6985 10.1473 30.4906 10.1473 30.3034 10.1473C29.4924 10.1473 28.9102 9.66132 28.9102 9.01976C28.9102 8.35876 29.4508 7.91161 30.3034 7.91161C32.175 7.91161 34.0466 7.91161 35.9181 7.91161C36.7083 7.91161 37.4985 7.91161 38.3303 7.91161C38.2888 7.7172 38.2472 7.56167 38.2264 7.42558C38.164 6.93955 38.3303 6.55073 38.767 6.27855C39.2037 6.02582 39.682 6.04526 40.0979 6.33687C40.9297 6.92011 41.7615 7.52279 42.5518 8.16435C43.1548 8.65038 43.134 9.40858 42.5102 9.89461C41.7407 10.4973 40.9505 11.0805 40.1603 11.6638C39.7236 11.9748 39.2661 12.0331 38.7878 11.761C38.2888 11.4693 38.1432 11.0416 38.2472 10.5167C38.268 10.439 38.3096 10.3223 38.3511 10.1473Z" fill="white"/>
<path d="M9.82017 30.1331C9.61222 30.172 9.44586 30.2109 9.30029 30.2303C8.80121 30.2887 8.4061 30.1526 8.11497 29.7637C7.84464 29.3749 7.78225 28.9278 8.07338 28.5584C8.73883 27.7224 9.44586 26.8864 10.1737 26.1088C10.6312 25.6228 11.359 25.6422 11.8373 26.1671C12.5443 26.9253 13.2098 27.7224 13.8752 28.5389C14.1871 28.9083 14.1664 29.336 13.896 29.7249C13.6257 30.1137 13.2306 30.2887 12.7315 30.2303C12.5651 30.2109 12.3988 30.172 12.17 30.1137C12.17 31.8051 12.17 33.4576 12.17 35.1101C12.17 35.9655 12.17 36.8014 12.17 37.6569C12.17 38.4345 11.6709 38.94 10.9431 38.9205C10.2153 38.9205 9.79938 38.4539 9.79938 37.6569C9.79938 35.3628 9.79938 33.0493 9.79938 30.7552C9.82017 30.5608 9.82017 30.3664 9.82017 30.1331Z" fill="white"/>
<path d="M58.356 48.1357C58.356 49.5744 58.356 50.9742 58.356 52.3739C57.5658 52.2962 56.838 51.4991 56.7132 50.6048C56.5677 49.5161 57.1915 48.544 58.356 48.1357Z" fill="white"/>
<path d="M59.999 58.5366C59.999 57.098 59.999 55.6982 59.999 54.3179C60.9764 54.5512 61.6834 55.5038 61.6626 56.4953C61.621 57.4479 60.914 58.3422 59.999 58.5366Z" fill="white"/>
<path d="M64.4282 7.19238C64.9065 7.19238 65.3224 7.19238 65.7799 7.19238C65.7799 9.99191 65.7799 12.772 65.7799 15.5715C65.3224 15.5715 64.8857 15.5715 64.4282 15.5715C64.4282 12.772 64.4282 10.0114 64.4282 7.19238Z" fill="white"/>
<path d="M53.9064 9.36975C53.9272 9.60305 53.948 9.77802 53.948 9.95299C53.948 11.6444 53.9272 13.3358 53.9688 15.0271C53.9896 15.6104 53.6984 15.6104 53.2202 15.6298C52.7211 15.6493 52.4923 15.552 52.5131 15.0077C52.5547 13.3552 52.5547 11.7027 52.5131 10.0308C52.4923 9.50584 52.6379 9.27255 53.2202 9.35031C53.4281 9.38919 53.6361 9.36975 53.9064 9.36975Z" fill="white"/>
<path d="M59.8531 11.1196C59.8531 12.6166 59.8531 14.0941 59.8531 15.5911C59.3957 15.5911 58.9798 15.5911 58.5015 15.5911C58.5015 14.0941 58.5015 12.636 58.5015 11.1196C58.9382 11.1196 59.3749 11.1196 59.8531 11.1196Z" fill="white"/>
<path d="M29.3473 32.3299C29.3681 28.8888 32.3002 26.1865 36.0225 26.1865C39.6617 26.206 42.6562 29.0249 42.5938 32.4271C42.5522 35.8488 39.5369 38.6094 35.8977 38.5706C32.217 38.5511 29.3265 35.771 29.3473 32.3299ZM35.9185 28.2667C33.4855 28.2862 31.5308 30.1136 31.5516 32.3883C31.5516 34.6629 33.5271 36.4903 35.9601 36.4903C38.4139 36.4903 40.3895 34.624 40.3687 32.3299C40.3479 30.0748 38.3516 28.2473 35.9185 28.2667Z" fill="white"/>
<path d="M18.887 59.1002C18.2631 59.1002 17.7017 59.1002 17.0362 59.1002C17.0362 58.4975 17.0362 57.8948 17.0362 57.2922C17.0362 57.0005 17.057 56.7089 17.0362 56.3979C17.0154 55.9507 16.7451 55.6591 16.2668 55.6591C15.7885 55.6591 15.4974 55.9118 15.4766 56.3784C15.4558 57.0005 15.4766 57.6227 15.4766 58.2642C15.4766 58.517 15.4766 58.7697 15.4766 59.0807C13.6258 59.0807 11.7958 59.0807 9.92428 59.0807C9.92428 58.2448 9.92428 57.4282 9.92428 56.6312C9.92428 55.9896 9.65394 55.6591 9.15486 55.6591C8.63498 55.6397 8.32305 56.009 8.32305 56.6506C8.32305 57.4671 8.32305 58.2642 8.32305 59.1002C7.6992 59.1002 7.13773 59.1002 6.53467 59.1002C6.53467 57.8948 6.45149 56.6895 6.55547 55.5036C6.63865 54.551 7.59523 53.7733 8.63498 53.6761C9.13406 53.6178 9.65394 53.6372 10.1738 53.6761C10.3194 53.6761 10.4857 53.8122 10.5897 53.9094C10.8601 54.1816 11.068 54.4926 11.3176 54.7842C12.0662 55.6397 13.3139 55.6397 14.0833 54.7648C14.1665 54.6676 14.2705 54.5704 14.3328 54.4537C14.8319 53.4428 15.7885 53.6178 16.6619 53.6761C17.5353 53.7344 18.2007 54.1427 18.575 54.8815C18.7414 55.1925 18.8454 55.5425 18.8662 55.8924C18.9078 56.9228 18.887 57.9726 18.887 59.1002Z" fill="white"/>
<path d="M12.7113 50.2353C11.422 50.2353 10.3407 49.2438 10.3199 48.019C10.2991 46.8136 11.4012 45.7832 12.6905 45.7832C14.0422 45.7638 15.1027 46.7747 15.082 48.0384C15.082 49.2826 14.0422 50.2353 12.7113 50.2353Z" fill="white"/>
<path d="M35.9602 34.9737C34.3798 34.9737 33.132 33.8267 33.1528 32.3492C33.1528 30.8911 34.4006 29.7246 35.981 29.7246C37.5198 29.7246 38.7467 30.8716 38.7675 32.3297C38.7675 33.8073 37.5406 34.9737 35.9602 34.9737Z" fill="white"/>
</svg>
