<svg width="71" height="71" viewBox="0 0 71 71" fill="none" xmlns="http://www.w3.org/2000/svg">
<path d="M30.2216 62.5892C29.9879 62.5892 29.7541 62.5892 29.2867 62.5892C22.5084 62.5892 15.9639 62.5892 9.18566 62.5892C8.017 62.5892 7.78327 62.3554 7.78327 61.1868C7.54953 57.2133 8.25073 53.4736 10.5881 50.2013C13.1591 46.4616 16.6651 44.358 21.3398 43.4231C21.5735 43.4231 21.5735 43.4231 21.8072 43.4231H22.041C22.041 45.0592 21.8072 46.6954 21.8072 48.3315C21.8072 49.0327 21.5735 49.7339 21.8072 50.4351C21.8072 50.9025 22.2747 51.6037 22.7421 51.8375C23.2096 52.0712 23.9108 51.8375 24.1445 51.6037C25.0795 50.4351 26.0144 49.2664 27.1831 48.0977C28.118 49.9676 29.0529 51.6037 29.9879 53.4736C29.9879 53.7073 29.9879 53.7073 29.9879 53.9411C29.9879 56.7459 29.9879 59.3169 29.9879 62.1217C30.2216 62.1217 30.2216 62.3554 30.2216 62.5892Z" stroke="white" stroke-miterlimit="10"/>
<path d="M34.8955 21.4524C36.5316 22.8548 38.4015 23.3223 40.2714 23.7897C40.7388 23.7897 40.9726 24.0235 40.9726 24.4909C40.9726 27.2957 40.9726 30.3342 40.9726 33.139C40.7388 38.2811 36.2979 42.4883 31.3895 42.4883C26.0137 42.4883 21.8065 38.5149 21.5728 33.139C21.5728 30.568 21.5728 27.9969 21.5728 25.4258C21.5728 25.4258 21.5728 25.1921 21.5728 24.9584C22.0402 24.9584 22.5077 24.9584 22.7414 24.9584C24.845 24.9584 26.9486 24.9584 29.0522 24.9584C31.1558 24.9584 32.7919 24.0235 34.1943 22.3873C34.428 22.1536 34.6618 21.6861 34.8955 21.4524ZM27.4161 32.4378C28.8185 32.4378 29.9871 31.5029 29.9871 30.1005C29.9871 29.633 29.7534 29.1656 29.2859 28.9318C29.0522 28.9318 28.5847 28.4644 28.351 28.9318C28.1173 29.1656 27.8835 28.9318 27.4161 29.1656C26.9486 29.1656 26.7149 30.3342 26.4811 29.8668C26.4811 29.3993 26.0137 29.1656 25.5462 28.9318C25.3125 29.3993 24.845 29.8668 24.845 30.1005C24.845 31.5029 26.2474 32.4378 27.4161 32.4378ZM34.6618 32.4378C36.0642 32.4378 37.4666 31.2692 37.2328 29.8668C37.2328 29.3993 36.7654 29.1656 36.5316 28.9318C36.2979 28.9318 36.0642 28.6981 35.8304 28.9318C35.5967 29.1656 35.1292 28.9318 34.8955 28.9318C34.1943 29.1656 33.9606 29.1656 33.7268 28.6981C33.4931 28.4644 33.0256 29.1656 32.5582 28.9318C32.3245 29.3993 31.857 29.633 31.857 30.1005C32.0907 31.5029 33.4931 32.4378 34.6618 32.4378ZM28.351 37.3462C29.9871 38.2811 32.3245 38.2811 33.9606 37.3462C34.428 37.1125 34.6618 36.645 34.1943 36.1775C33.7268 35.7101 33.2594 35.7101 32.7919 36.1775C31.3895 36.645 30.9221 36.4113 29.2859 36.1775C28.8185 35.9438 28.351 35.7101 27.8835 36.1775C27.6498 36.4113 27.8835 37.1125 28.351 37.3462Z" stroke="white" stroke-miterlimit="10"/>
<path d="M18.067 26.8281C16.6647 23.7895 16.4309 20.9847 17.8333 18.1799C19.7032 13.739 22.9754 10.4668 28.1175 9.29811C33.2597 8.12945 38.8692 10.4668 40.9728 15.3752C41.2066 15.6089 41.4403 16.0764 41.9078 16.0764C43.7776 16.7776 44.9463 17.9462 44.7126 20.2835C44.7126 22.1534 44.4788 23.7895 44.2451 25.6594C44.2451 25.8931 44.0114 26.3606 44.0114 26.5943C43.0764 26.5943 42.609 26.1269 42.609 24.9582C42.609 24.4907 42.609 24.257 42.609 23.7895C42.609 22.8546 41.9078 22.1534 40.9728 21.9197C39.103 21.6859 37.4668 21.2185 36.0645 20.0498C35.3633 19.5823 34.1946 19.5823 33.4934 20.2835C33.2597 20.5173 33.0259 20.751 32.7922 21.2185C31.8573 22.6209 30.4549 23.3221 28.8187 23.3221C26.7152 23.3221 24.3778 23.3221 22.2742 23.3221C20.4044 23.3221 19.7032 24.0233 19.7032 25.6594C19.4694 26.5943 18.5345 26.3606 18.067 26.8281ZM19.2357 19.8161C19.4694 20.0498 19.7032 20.5173 19.9369 20.5173C20.1706 20.5173 20.8718 20.2835 20.8718 20.0498C21.573 18.1799 22.7417 16.7776 23.9104 15.3752C24.1441 15.1414 23.9104 14.4402 23.9104 13.9728C23.4429 13.9728 22.9754 13.739 22.7417 13.9728C21.3393 15.6089 20.1706 17.245 19.2357 19.1149C19.2357 19.3486 19.2357 19.3486 19.2357 19.8161Z" stroke="white" stroke-miterlimit="10"/>
<path d="M35.1293 48.0977C36.298 49.2664 37.2329 50.2013 38.1679 51.37C38.6353 51.8375 39.3365 52.3049 40.0377 51.8375C40.7389 51.37 40.7389 50.9025 40.7389 50.2013C40.5052 47.864 40.5052 45.7604 40.2715 43.4231C43.5437 43.6568 46.5822 45.0592 49.1533 47.1628C48.9196 47.3966 48.6858 47.864 48.4521 48.0977C47.7509 49.0327 47.7509 49.5001 48.6858 50.2013C51.0232 51.8375 51.9581 54.1748 52.4256 57.2133C51.9581 57.2133 51.4906 57.2133 51.0232 57.2133C49.6208 57.2133 48.9196 57.9145 48.9196 59.3169C48.9196 60.2518 48.9196 61.4205 48.9196 62.5892C43.31 62.5892 37.7004 62.5892 32.0908 62.5892C32.0908 62.3554 32.0908 62.1217 32.0908 61.6542C32.0908 59.5506 32.0908 57.6808 32.0908 55.5772C32.0908 54.1748 32.3246 52.7724 33.0258 51.6037C33.7269 50.6688 34.1944 49.5001 35.1293 48.0977Z" stroke="white" stroke-miterlimit="10"/>
<path d="M57.5678 41.5532C59.4377 43.8905 61.0738 46.2279 62.9437 48.7989C62.4762 49.2664 62.0087 49.7339 61.5413 50.2013C59.9051 51.8375 59.204 53.941 58.9702 56.2784C58.9702 56.9796 58.7365 57.2133 58.0353 57.2133C56.8666 57.2133 55.9317 57.2133 54.763 57.2133C54.5293 57.2133 54.0618 56.9796 54.0618 56.7458C53.8281 53.7073 52.4257 51.1363 50.0884 49.0327C51.9582 46.6953 53.5944 44.358 55.4642 42.0207H55.698C55.698 43.1893 55.698 44.358 55.698 45.5267C55.698 45.7604 55.4642 45.9941 55.2305 45.9941C53.8281 46.9291 53.3606 48.0977 53.8281 49.2664C54.2956 50.6688 55.4642 51.37 56.6329 51.37C58.0353 51.37 59.2039 50.4351 59.4377 49.0327C59.6714 47.864 59.2039 46.6953 58.0353 45.9941C57.5678 45.7604 57.3341 45.2929 57.3341 44.8255C57.3341 43.8905 57.3341 42.9556 57.3341 42.0207C57.3341 41.787 57.3341 41.787 57.5678 41.5532Z" stroke="white" stroke-miterlimit="10"/>
<path d="M62.4759 62.5893C61.0735 62.5893 59.9048 62.5893 58.5024 62.5893C56.1651 62.5893 53.8278 62.5893 51.4904 62.5893C50.7892 62.5893 50.5555 62.3556 50.5555 61.8881C50.5555 60.9532 50.3218 59.7845 50.7892 59.3171C51.2567 58.8496 52.4254 59.0833 53.3603 59.0833C55.9313 59.0833 58.7361 59.0833 61.3072 59.0833C62.0084 59.0833 62.2421 59.3171 62.2421 60.0183C62.2421 60.7195 62.4759 61.4207 62.4759 62.5893Z" stroke="white" stroke-miterlimit="10"/>
<path d="M26.7153 43.4231C29.7539 44.5918 32.5586 44.5918 35.5972 43.6568C34.1948 46.2279 32.7924 48.7989 31.1563 51.6037C29.7539 48.7989 28.1177 46.2279 26.7153 43.4231Z" stroke="white" stroke-miterlimit="10"/>
<path d="M26.482 46.4616C25.5471 47.3965 24.6122 48.3314 23.6772 49.2664C23.6772 46.929 23.911 44.5917 23.911 42.2544H24.1447C24.8459 43.6568 25.5471 45.2929 26.482 46.4616Z" stroke="white" stroke-miterlimit="10"/>
<path d="M38.4023 42.2544C38.636 44.5917 38.636 46.929 38.8698 49.2664L38.636 49.5001C37.9348 48.5652 36.9999 47.6302 36.2987 46.6953C36.2987 46.4616 36.065 46.2279 36.2987 45.9941C36.7662 45.0592 37.4674 43.6568 38.4023 42.2544Z" stroke="white" stroke-miterlimit="10"/>
<path d="M42.6089 28.2305C43.5438 28.6979 44.0113 29.3991 44.0113 30.3341C44.0113 31.269 43.5438 31.9702 42.6089 32.4377C42.6089 30.8015 42.6089 29.3991 42.6089 28.2305Z" stroke="white" stroke-miterlimit="10"/>
<path d="M19.4693 27.9968C19.4693 29.3992 19.4693 30.8016 19.4693 31.9703C18.5344 31.7365 18.3006 31.2691 18.0669 30.3342C18.0669 29.3992 18.5344 28.698 19.4693 27.9968Z" stroke="white" stroke-miterlimit="10"/>
<path d="M57.5683 48.5652C57.5683 49.2664 57.1008 49.7339 56.3996 49.5002C55.6984 49.5002 55.231 49.0327 55.231 48.3315C55.231 47.6303 55.6984 47.1628 56.3996 47.1628C57.1008 47.1628 57.5683 47.6303 57.5683 48.5652Z" stroke="white" stroke-miterlimit="10"/>
<path d="M34.6628 31.2692C34.921 31.2692 35.1302 31.0599 35.1302 30.8017C35.1302 30.5435 34.921 30.3342 34.6628 30.3342C34.4046 30.3342 34.1953 30.5435 34.1953 30.8017C34.1953 31.0599 34.4046 31.2692 34.6628 31.2692Z" stroke="white" stroke-miterlimit="10"/>
<path d="M27.4157 31.2692C27.6739 31.2692 27.8832 31.0599 27.8832 30.8017C27.8832 30.5435 27.6739 30.3342 27.4157 30.3342C27.1575 30.3342 26.9482 30.5435 26.9482 30.8017C26.9482 31.0599 27.1575 31.2692 27.4157 31.2692Z" stroke="white" stroke-miterlimit="10"/>
</svg>
